  0
SECTION
  2
HEADER
  9
$ACADVER
  1
AC1027
  9
$ACADMAINTVER
 70
     8
  9
$DWGCODEPAGE
  3
ANSI_1252
  9
$REQUIREDVERSIONS
160
                 0
  9
$COMMENTS
  1
File was created by SpaceClaim
  9
$INSBASE
 10
0.0
 20
0.0
 30
0.0
  9
$EXTMIN
 10
-14.25102742609043
 20
-14.25661387077148
 30
0.0
  9
$EXTMAX
 10
14.25820235487078
 20
14.25261591018974
 30
0.0
  9
$LIMMIN
 10
0.0
 20
0.0
  9
$LIMMAX
 10
420.0
 20
297.0
  9
$ORTHOMODE
 70
     0
  9
$REGENMODE
 70
     1
  9
$FILLMODE
 70
     1
  9
$QTEXTMODE
 70
     0
  9
$MIRRTEXT
 70
     1
  9
$LTSCALE
 40
1.0
  9
$ATTMODE
 70
     1
  9
$TEXTSIZE
 40
2.5
  9
$TRACEWID
 40
1.0
  9
$TEXTSTYLE
  7
Standard
  9
$CLAYER
  8
0
  9
$CELTYPE
  6
ByLayer
  9
$CECOLOR
 62
   256
  9
$CELTSCALE
 40
1.0
  9
$DISPSILH
 70
     0
  9
$DIMSCALE
 40
1.0
  9
$DIMASZ
 40
2.5
  9
$DIMEXO
 40
0.625
  9
$DIMDLI
 40
3.75
  9
$DIMRND
 40
0.0
  9
$DIMDLE
 40
0.0
  9
$DIMEXE
 40
1.25
  9
$DIMTP
 40
0.0
  9
$DIMTM
 40
0.0
  9
$DIMTXT
 40
2.5
  9
$DIMCEN
 40
2.5
  9
$DIMTSZ
 40
0.0
  9
$DIMTOL
 70
     0
  9
$DIMLIM
 70
     0
  9
$DIMTIH
 70
     1
  9
$DIMTOH
 70
     0
  9
$DIMSE1
 70
     0
  9
$DIMSE2
 70
     0
  9
$DIMTAD
 70
     1
  9
$DIMZIN
 70
     8
  9
$DIMBLK
  1

  9
$DIMASO
 70
     1
  9
$DIMSHO
 70
     1
  9
$DIMPOST
  1
mm
  9
$DIMAPOST
  1

  9
$DIMALT
 70
     0
  9
$DIMALTD
 70
     3
  9
$DIMALTF
 40
0.0393700787401575
  9
$DIMLFAC
 40
1.0
  9
$DIMTOFL
 70
     1
  9
$DIMTVP
 40
0.0
  9
$DIMTIX
 70
     0
  9
$DIMSOXD
 70
     0
  9
$DIMSAH
 70
     0
  9
$DIMBLK1
  1

  9
$DIMBLK2
  1

  9
$DIMSTYLE
  2
ISO-25
  9
$DIMCLRD
 70
     0
  9
$DIMCLRE
 70
     0
  9
$DIMCLRT
 70
     0
  9
$DIMTFAC
 40
1.0
  9
$DIMGAP
 40
0.625
  9
$DIMJUST
 70
     0
  9
$DIMSD1
 70
     0
  9
$DIMSD2
 70
     0
  9
$DIMTOLJ
 70
     0
  9
$DIMTZIN
 70
     8
  9
$DIMALTZ
 70
     0
  9
$DIMALTTZ
 70
     8
  9
$DIMUPT
 70
     0
  9
$DIMDEC
 70
     3
  9
$DIMTDEC
 70
     3
  9
$DIMALTU
 70
     2
  9
$DIMALTTD
 70
     3
  9
$DIMTXSTY
  7
Standard
  9
$DIMAUNIT
 70
     0
  9
$DIMADEC
 70
     1
  9
$DIMALTRND
 40
0.0
  9
$DIMAZIN
 70
     0
  9
$DIMDSEP
 70
    46
  9
$DIMATFIT
 70
     3
  9
$DIMFRAC
 70
     0
  9
$DIMLDRBLK
  1

  9
$DIMLUNIT
 70
     2
  9
$DIMLWD
 70
    -2
  9
$DIMLWE
 70
    -2
  9
$DIMTMOVE
 70
     0
  9
$DIMFXL
 40
1.0
  9
$DIMFXLON
 70
     0
  9
$DIMJOGANG
 40
0.7853981633974483
  9
$DIMTFILL
 70
     0
  9
$DIMTFILLCLR
 70
     0
  9
$DIMARCSYM
 70
     0
  9
$DIMLTYPE
  6

  9
$DIMLTEX1
  6

  9
$DIMLTEX2
  6

  9
$DIMTXTDIRECTION
 70
     0
  9
$LUNITS
 70
     2
  9
$LUPREC
 70
     4
  9
$SKETCHINC
 40
1.0
  9
$FILLETRAD
 40
10.0
  9
$AUNITS
 70
     0
  9
$AUPREC
 70
     0
  9
$MENU
  1
.
  9
$ELEVATION
 40
0.0
  9
$PELEVATION
 40
0.0
  9
$THICKNESS
 40
0.0
  9
$LIMCHECK
 70
     0
  9
$CHAMFERA
 40
0.0
  9
$CHAMFERB
 40
0.0
  9
$CHAMFERC
 40
0.0
  9
$CHAMFERD
 40
0.0
  9
$SKPOLY
 70
     0
  9
$TDCREATE
 40
2457850.67839934
  9
$TDUCREATE
 40
2457850.636732674
  9
$TDUPDATE
 40
2457850.678401643
  9
$TDUUPDATE
 40
2457850.636734977
  9
$TDINDWG
 40
0.0000000116
  9
$TDUSRTIMER
 40
0.0000000116
  9
$USRTIMER
 70
     1
  9
$ANGBASE
 50
0.0
  9
$ANGDIR
 70
     0
  9
$PDMODE
 70
     0
  9
$PDSIZE
 40
0.0
  9
$PLINEWID
 40
0.0
  9
$SPLFRAME
 70
     0
  9
$SPLINETYPE
 70
     6
  9
$SPLINESEGS
 70
     8
  9
$HANDSEED
  5
13D
  9
$SURFTAB1
 70
     6
  9
$SURFTAB2
 70
     6
  9
$SURFTYPE
 70
     6
  9
$SURFU
 70
     6
  9
$SURFV
 70
     6
  9
$UCSBASE
  2

  9
$UCSNAME
  2

  9
$UCSORG
 10
0.0
 20
0.0
 30
0.0
  9
$UCSXDIR
 10
1.0
 20
0.0
 30
0.0
  9
$UCSYDIR
 10
0.0
 20
1.0
 30
0.0
  9
$UCSORTHOREF
  2

  9
$UCSORTHOVIEW
 70
     0
  9
$UCSORGTOP
 10
0.0
 20
0.0
 30
0.0
  9
$UCSORGBOTTOM
 10
0.0
 20
0.0
 30
0.0
  9
$UCSORGLEFT
 10
0.0
 20
0.0
 30
0.0
  9
$UCSORGRIGHT
 10
0.0
 20
0.0
 30
0.0
  9
$UCSORGFRONT
 10
0.0
 20
0.0
 30
0.0
  9
$UCSORGBACK
 10
0.0
 20
0.0
 30
0.0
  9
$PUCSBASE
  2

  9
$PUCSNAME
  2

  9
$PUCSORG
 10
0.0
 20
0.0
 30
0.0
  9
$PUCSXDIR
 10
1.0
 20
0.0
 30
0.0
  9
$PUCSYDIR
 10
0.0
 20
1.0
 30
0.0
  9
$PUCSORTHOREF
  2

  9
$PUCSORTHOVIEW
 70
     0
  9
$PUCSORGTOP
 10
0.0
 20
0.0
 30
0.0
  9
$PUCSORGBOTTOM
 10
0.0
 20
0.0
 30
0.0
  9
$PUCSORGLEFT
 10
0.0
 20
0.0
 30
0.0
  9
$PUCSORGRIGHT
 10
0.0
 20
0.0
 30
0.0
  9
$PUCSORGFRONT
 10
0.0
 20
0.0
 30
0.0
  9
$PUCSORGBACK
 10
0.0
 20
0.0
 30
0.0
  9
$USERI1
 70
     0
  9
$USERI2
 70
     0
  9
$USERI3
 70
     0
  9
$USERI4
 70
     0
  9
$USERI5
 70
     0
  9
$USERR1
 40
0.0
  9
$USERR2
 40
0.0
  9
$USERR3
 40
0.0
  9
$USERR4
 40
0.0
  9
$USERR5
 40
0.0
  9
$WORLDVIEW
 70
     1
  9
$SHADEDGE
 70
     3
  9
$SHADEDIF
 70
    70
  9
$TILEMODE
 70
     1
  9
$MAXACTVP
 70
    64
  9
$PINSBASE
 10
0.0
 20
0.0
 30
0.0
  9
$PLIMCHECK
 70
     0
  9
$PEXTMIN
 10
1.000000000000000E+20
 20
1.000000000000000E+20
 30
1.000000000000000E+20
  9
$PEXTMAX
 10
-1.000000000000000E+20
 20
-1.000000000000000E+20
 30
-1.000000000000000E+20
  9
$PLIMMIN
 10
0.0
 20
0.0
  9
$PLIMMAX
 10
420.0
 20
297.0
  9
$UNITMODE
 70
     0
  9
$VISRETAIN
 70
     1
  9
$PLINEGEN
 70
     0
  9
$PSLTSCALE
 70
     1
  9
$TREEDEPTH
 70
  3020
  9
$CMLSTYLE
  2
Standard
  9
$CMLJUST
 70
     0
  9
$CMLSCALE
 40
20.0
  9
$PROXYGRAPHICS
 70
     1
  9
$MEASUREMENT
 70
     1
  9
$CELWEIGHT
370
    -1
  9
$ENDCAPS
280
     0
  9
$JOINSTYLE
280
     0
  9
$LWDISPLAY
290
     0
  9
$INSUNITS
 70
     4
  9
$HYPERLINKBASE
  1

  9
$STYLESHEET
  1

  9
$XEDIT
290
     1
  9
$CEPSNTYPE
380
     0
  9
$PSTYLEMODE
290
     1
  9
$FINGERPRINTGUID
  2
{3F81FD68-4BA7-4258-A2DE-0478B2889C6A}
  9
$VERSIONGUID
  2
{FAEB1C32-E019-11D5-929B-00C0DF256EC4}
  9
$EXTNAMES
290
     1
  9
$PSVPSCALE
 40
0.0
  9
$OLESTARTUP
290
     0
  9
$SORTENTS
280
   127
  9
$INDEXCTL
280
     0
  9
$HIDETEXT
280
     1
  9
$XCLIPFRAME
280
     2
  9
$HALOGAP
280
     0
  9
$OBSCOLOR
 70
   257
  9
$OBSLTYPE
280
     0
  9
$INTERSECTIONDISPLAY
280
     0
  9
$INTERSECTIONCOLOR
 70
   257
  9
$DIMASSOC
280
     2
  9
$PROJECTNAME
  1

  9
$CAMERADISPLAY
290
     0
  9
$LENSLENGTH
 40
50.0
  9
$CAMERAHEIGHT
 40
0.0
  9
$STEPSPERSEC
 40
2.0
  9
$STEPSIZE
 40
6.0
  9
$3DDWFPREC
 40
2.0
  9
$PSOLWIDTH
 40
5.0
  9
$PSOLHEIGHT
 40
80.0
  9
$LOFTANG1
 40
1.570796326794897
  9
$LOFTANG2
 40
1.570796326794897
  9
$LOFTMAG1
 40
0.0
  9
$LOFTMAG2
 40
0.0
  9
$LOFTPARAM
 70
     7
  9
$LOFTNORMALS
280
     1
  9
$LATITUDE
 40
37.795
  9
$LONGITUDE
 40
-122.394
  9
$NORTHDIRECTION
 40
0.0
  9
$TIMEZONE
 70
 -8000
  9
$LIGHTGLYPHDISPLAY
280
     1
  9
$TILEMODELIGHTSYNCH
280
     1
  9
$CMATERIAL
347
44
  9
$SOLIDHIST
280
     1
  9
$SHOWHIST
280
     1
  9
$DWFFRAME
280
     2
  9
$DGNFRAME
280
     2
  9
$REALWORLDSCALE
290
     1
  9
$INTERFERECOLOR
 62
   256
  9
$CSHADOW
280
     0
  9
$SHADOWPLANELOCATION
 40
0.0
  0
ENDSEC
  0
SECTION
  2
CLASSES
  0
CLASS
  1
ACDBDICTIONARYWDFLT
  2
AcDbDictionaryWithDefault
  3
ObjectDBX Classes
 90
        0
 91
        4
280
     0
281
     0
  0
CLASS
  1
VISUALSTYLE
  2
AcDbVisualStyle
  3
ObjectDBX Classes
 90
     4095
 91
        4
280
     0
281
     0
  0
CLASS
  1
MATERIAL
  2
AcDbMaterial
  3
ObjectDBX Classes
 90
     1153
 91
        4
280
     0
281
     0
  0
CLASS
  1
SCALE
  2
AcDbScale
  3
ObjectDBX Classes
 90
     1153
 91
        4
280
     0
281
     0
  0
CLASS
  1
SUN
  2
AcDbSun
  3
SCENEOE
 90
     1153
 91
        4
280
     0
281
     0
  0
CLASS
  1
DICTIONARYVAR
  2
AcDbDictionaryVar
  3
ObjectDBX Classes
 90
        0
 91
        4
280
     0
281
     0
  0
ENDSEC
  0
SECTION
  2
TABLES
  0
TABLE
  2
VPORT
  5
8
330
0
100
AcDbSymbolTable
 70
     1
  0
VPORT
  5
29
330
8
100
AcDbSymbolTableRecord
100
AcDbViewportTableRecord
  2
*Active
 70
     0
 10
0.0
 20
0.0
 11
1.0
 21
1.0
 12
0.0035874643901721
 22
-0.0019989802908693
 13
0.0
 23
0.0
 14
10.0
 24
10.0
 15
10.0
 25
10.0
 16
0.0
 26
0.0
 36
1.0
 17
0.0
 27
0.0
 37
0.0
 40
28.50922978096121
 41
1.0
 42
50.0
 43
0.0
 44
0.0
 50
0.0
 51
0.0
 71
     0
 72
   100
 73
     1
 74
     3
 75
     0
 76
     0
 77
     0
 78
     0
281
     0
 65
     1
110
0.0
120
0.0
130
0.0
111
1.0
121
0.0
131
0.0
112
0.0
122
1.0
132
0.0
 79
     0
146
0.0
 60
     3
 61
     5
292
     1
282
     1
141
0.0
142
0.0
 63
   250
361
69
  0
ENDTAB
  0
TABLE
  2
LTYPE
  5
5
330
0
100
AcDbSymbolTable
 70
     1
  0
LTYPE
  5
14
330
5
100
AcDbSymbolTableRecord
100
AcDbLinetypeTableRecord
  2
ByBlock
 70
     0
  3

 72
    65
 73
     0
 40
0.0
  0
LTYPE
  5
15
330
5
100
AcDbSymbolTableRecord
100
AcDbLinetypeTableRecord
  2
ByLayer
 70
     0
  3

 72
    65
 73
     0
 40
0.0
  0
LTYPE
  5
16
330
5
100
AcDbSymbolTableRecord
100
AcDbLinetypeTableRecord
  2
Continuous
 70
     0
  3
Solid line
 72
    65
 73
     0
 40
0.0
  0
ENDTAB
  0
TABLE
  2
LAYER
  5
2
330
0
100
AcDbSymbolTable
 70
     1
  0
LAYER
  5
10
330
2
100
AcDbSymbolTableRecord
100
AcDbLayerTableRecord
  2
0
 70
     0
 62
   253
420
  9416591
  6
Continuous
370
    70
390
F
347
46
348
0
  0
ENDTAB
  0
TABLE
  2
STYLE
  5
3
330
0
100
AcDbSymbolTable
 70
     1
  0
STYLE
  5
11
330
3
100
AcDbSymbolTableRecord
100
AcDbTextStyleTableRecord
  2
Standard
 70
     0
 40
0.0
 41
1.0
 50
0.0
 71
     0
 42
2.5
  3
txt
  4

  0
ENDTAB
  0
TABLE
  2
VIEW
  5
6
330
0
100
AcDbSymbolTable
 70
     0
  0
ENDTAB
  0
TABLE
  2
UCS
  5
7
330
0
100
AcDbSymbolTable
 70
     0
  0
ENDTAB
  0
TABLE
  2
APPID
  5
9
330
0
100
AcDbSymbolTable
 70
     1
  0
APPID
  5
12
330
9
100
AcDbSymbolTableRecord
100
AcDbRegAppTableRecord
  2
ACAD
 70
     0
  0
ENDTAB
  0
TABLE
  2
DIMSTYLE
  5
A
330
0
100
AcDbSymbolTable
 70
     1
100
AcDbDimStyleTable
  0
DIMSTYLE
105
27
330
A
100
AcDbSymbolTableRecord
100
AcDbDimStyleTableRecord
  2
ISO-25
 70
     0
 41
2.5
 42
0.625
 43
3.75
 44
1.25
 73
     0
 74
     0
 77
     1
 78
     8
140
2.5
141
2.5
143
0.03937007874016
147
0.625
171
     3
172
     1
178
     0
271
     2
272
     2
274
     3
278
    44
283
     0
284
     8
340
11
  0
ENDTAB
  0
TABLE
  2
BLOCK_RECORD
  5
1
330
0
100
AcDbSymbolTable
 70
     1
  0
BLOCK_RECORD
  5
1F
330
1
100
AcDbSymbolTableRecord
100
AcDbBlockTableRecord
  2
*Model_Space
340
22
 70
     0
280
     1
281
     0
  0
BLOCK_RECORD
  5
1B
330
1
100
AcDbSymbolTableRecord
100
AcDbBlockTableRecord
  2
*Paper_Space
340
1E
 70
     0
280
     1
281
     0
  0
BLOCK_RECORD
  5
23
330
1
100
AcDbSymbolTableRecord
100
AcDbBlockTableRecord
  2
*Paper_Space0
340
26
 70
     0
280
     1
281
     0
  0
ENDTAB
  0
ENDSEC
  0
SECTION
  2
BLOCKS
  0
BLOCK
  5
20
330
1F
100
AcDbEntity
  8
0
100
AcDbBlockBegin
  2
*Model_Space
 70
     0
 10
0.0
 20
0.0
 30
0.0
  3
*Model_Space
  1
*Model_Space
  0
ENDBLK
  5
21
330
1F
100
AcDbEntity
  8
0
100
AcDbBlockEnd
  0
BLOCK
  5
1C
330
1B
100
AcDbEntity
 67
     1
  8
0
100
AcDbBlockBegin
  2
*Paper_Space
 70
     0
 10
0.0
 20
0.0
 30
0.0
  3
*Paper_Space
  1
*Paper_Space
  0
ENDBLK
  5
1D
330
1B
100
AcDbEntity
 67
     1
  8
0
100
AcDbBlockEnd
  0
BLOCK
  5
24
330
23
100
AcDbEntity
  8
0
100
AcDbBlockBegin
  2
*Paper_Space0
 70
     0
 10
0.0
 20
0.0
 30
0.0
  3
*Paper_Space0
  1
*Paper_Space0
  0
ENDBLK
  5
25
330
23
100
AcDbEntity
  8
0
100
AcDbBlockEnd
  0
ENDSEC
  0
SECTION
  2
ENTITIES
  0
LINE
  5
6A
330
1F
100
AcDbEntity
  8
0
100
AcDbLine
 10
-1.257444121388709
 20
14.19672789980579
 30
0.0
 11
-1.788540981361813
 21
11.49209580796144
 31
0.0
  0
LINE
  5
6B
330
1F
100
AcDbEntity
  8
0
100
AcDbLine
 10
0.48845309108677
 20
14.24436725815603
 30
0.0
 11
1.096692217140413
 21
11.57949752779983
 31
0.0
  0
LINE
  5
6C
330
1F
100
AcDbEntity
  8
0
100
AcDbLine
 10
-5.555377654811003
 20
13.1293883817178
 30
0.0
 11
-5.224345368831656
 21
10.39004882842919
 31
0.0
  0
LINE
  5
6D
330
1F
100
AcDbEntity
  8
0
100
AcDbLine
 10
-3.893394388319126
 20
13.7147411458235
 30
0.0
 11
-2.487264358959762
 21
11.36116944060257
 31
0.0
  0
LINE
  5
6E
330
1F
100
AcDbEntity
  8
0
100
AcDbLine
 10
-9.304772186515166
 20
10.79376344231315
 30
0.0
 11
-8.146926114807355
 21
8.298306301005656
 31
0.0
  0
LINE
  5
6F
330
1F
100
AcDbEntity
  8
0
100
AcDbLine
 10
-7.890377668722063
 20
11.86726216575861
 30
0.0
 11
-5.826826122670485
 21
10.06439147365144
 31
0.0
  0
LINE
  5
70
330
1F
100
AcDbEntity
  8
0
100
AcDbLine
 10
-12.15673606996522
 20
7.435781415480034
 30
0.0
 11
-10.28696252369172
 21
5.422991370870142
 31
0.0
  0
LINE
  5
71
330
1F
100
AcDbEntity
  8
0
100
AcDbLine
 10
-11.13496915503783
 20
8.893314511189244
 30
0.0
 11
-8.611705902044582
 21
7.814820038828585
 31
0.0
  0
LINE
  5
72
330
1F
100
AcDbEntity
  8
0
100
AcDbLine
 10
-13.84609940629805
 20
3.371459076332612
 30
0.0
 11
-11.44930899884677
 21
2.036898263264334
 31
0.0
  0
LINE
  5
73
330
1F
100
AcDbEntity
  8
0
100
AcDbLine
 10
-13.31883190203618
 20
5.068226645949006
 30
0.0
 11
-10.58205469446322
 21
4.8219122390526
 31
0.0
  0
LINE
  5
74
330
1F
100
AcDbEntity
  8
0
100
AcDbLine
 10
-14.21491512993352
 20
-1.016015573410445
 30
0.0
 11
-11.52674392905587
 21
-1.54388007969998
 31
0.0
  0
LINE
  5
75
330
1F
100
AcDbEntity
  8
0
100
AcDbLine
 10
-14.23116441175178
 20
0.750254102510731
 30
0.0
 11
-11.54908748186202
 21
1.36242065957044
 31
0.0
  0
LINE
  5
76
330
1F
100
AcDbEntity
  8
0
100
AcDbLine
 10
-13.22374416195238
 20
-5.315354202998802
 30
0.0
 11
-10.50805025761512
 21
-4.985111638932616
 31
0.0
  0
LINE
  5
77
330
1F
100
AcDbEntity
  8
0
100
AcDbLine
 10
-13.77614037260179
 20
-3.650717442208317
 30
0.0
 11
-11.41195141920071
 21
-2.240617162256067
 31
0.0
  0
LINE
  5
78
330
1F
100
AcDbEntity
  8
0
100
AcDbLine
 10
-10.96035802063
 20
-9.111661162689145
 30
0.0
 11
-8.48048610634872
 21
-7.961046348769847
 31
0.0
  0
LINE
  5
79
330
1F
100
AcDbEntity
  8
0
100
AcDbLine
 10
-11.9821669321525
 20
-7.71793944284431
 30
0.0
 11
-10.16984159554209
 21
-5.643566185414636
 31
0.0
  0
LINE
  5
7A
330
1F
100
AcDbEntity
  8
0
100
AcDbLine
 10
-7.627788262131341
 20
-12.04177265742324
 30
0.0
 11
-5.625893981911888
 21
-10.18212068944264
 31
0.0
  0
LINE
  5
7B
330
1F
100
AcDbEntity
  8
0
100
AcDbLine
 10
-9.009987179776004
 20
-11.04507453966091
 30
0.0
 11
-7.927422347891397
 21
-8.512288207155944
 31
0.0
  0
LINE
  5
7C
330
1F
100
AcDbEntity
  8
0
100
AcDbLine
 10
-3.538251734141186
 20
-13.80958460442003
 30
0.0
 11
-2.209142118522759
 21
-11.4225842174976
 31
0.0
  0
LINE
  5
7D
330
1F
100
AcDbEntity
  8
0
100
AcDbLine
 10
-5.137842756531323
 20
-13.29710112203114
 30
0.0
 11
-4.891059998759125
 21
-10.55512011002724
 31
0.0
  0
LINE
  5
7E
330
1F
100
AcDbEntity
  8
0
100
AcDbLine
 10
0.9156621513975582
 20
-14.22740461391805
 30
0.0
 11
1.44226437018935
 21
-11.54566166282462
 31
0.0
  0
LINE
  5
7F
330
1F
100
AcDbEntity
  8
0
100
AcDbLine
 10
-0.7416898592161618
 20
-14.23711778509294
 30
0.0
 11
-1.353749750213246
 21
-11.55550818975857
 31
0.0
  0
LINE
  5
80
330
1F
100
AcDbEntity
  8
0
100
AcDbLine
 10
5.295614559944079
 20
-13.23787805558597
 30
0.0
 11
4.967503897334726
 21
-10.52271535391036
 31
0.0
  0
LINE
  5
81
330
1F
100
AcDbEntity
  8
0
100
AcDbLine
 10
3.740897239816138
 20
-13.75796355273787
 30
0.0
 11
2.331837520440973
 21
-11.39959482520052
 31
0.0
  0
LINE
  5
82
330
1F
100
AcDbEntity
  8
0
100
AcDbLine
 10
9.161232053339917
 20
-10.92589898250578
 30
0.0
 11
8.00893418040423
 21
-8.442399641622364
 31
0.0
  0
LINE
  5
83
330
1F
100
AcDbEntity
  8
0
100
AcDbLine
 10
7.856309582222564
 20
-11.89858676906532
 30
0.0
 11
5.790304139697629
 21
-10.09357217217333
 31
0.0
  0
LINE
  5
84
330
1F
100
AcDbEntity
  8
0
100
AcDbLine
 10
12.11761056212478
 20
-7.514953796038392
 30
0.0
 11
10.25184080368065
 21
-5.506473783677994
 31
0.0
  0
LINE
  5
85
330
1F
100
AcDbEntity
  8
0
100
AcDbLine
 10
11.18503303285961
 20
-8.843340545645445
 30
0.0
 11
8.665944847980235
 21
-7.766630583037065
 31
0.0
  0
LINE
  5
86
330
1F
100
AcDbEntity
  8
0
100
AcDbLine
 10
13.86031713016554
 20
-3.346410534739954
 30
0.0
 11
11.46178682924106
 21
-2.01088092872214
 31
0.0
  0
LINE
  5
87
330
1F
100
AcDbEntity
  8
0
100
AcDbLine
 10
13.38917476526165
 20
-4.90302930938083
 30
0.0
 11
10.66424555402203
 21
-4.65778124145483
 31
0.0
  0
LINE
  5
88
330
1F
100
AcDbEntity
  8
0
100
AcDbLine
 10
14.21102851156219
 20
1.156735056079435
 30
0.0
 11
11.51336745174683
 21
1.686463044762232
 31
0.0
  0
LINE
  5
89
330
1F
100
AcDbEntity
  8
0
100
AcDbLine
 10
14.25096961268897
 20
-0.4797407220701773
 30
0.0
 11
11.58574657962849
 21
-1.088060487160555
 31
0.0
  0
LINE
  5
8A
330
1F
100
AcDbEntity
  8
0
100
AcDbLine
 10
13.1380115206113
 20
5.537039779933792
 30
0.0
 11
10.40523839434537
 21
5.206801006151728
 31
0.0
  0
LINE
  5
8B
330
1F
100
AcDbEntity
  8
0
100
AcDbLine
 10
13.69129179792343
 20
3.978050737198382
 30
0.0
 11
11.34698541286329
 21
2.577392876325375
 31
0.0
  0
LINE
  5
8C
330
1F
100
AcDbEntity
  8
0
100
AcDbLine
 10
10.75822672106577
 20
9.353843052080332
 30
0.0
 11
8.258819179111931
 21
8.194164067358582
 31
0.0
  0
LINE
  5
8D
330
1F
100
AcDbEntity
  8
0
100
AcDbLine
 10
11.78202546313391
 20
8.026851746037346
 30
0.0
 11
9.98597168294588
 21
5.971102783494196
 31
0.0
  0
LINE
  5
8E
330
1F
100
AcDbEntity
  8
0
100
AcDbLine
 10
7.321240775754585
 20
12.23098903125353
 30
0.0
 11
5.30135367077256
 21
10.35462269812894
 31
0.0
  0
LINE
  5
8F
330
1F
100
AcDbEntity
  8
0
100
AcDbLine
 10
8.728205672314024
 20
11.27075945772592
 30
0.0
 11
7.652808042590345
 21
8.762438475327224
 31
0.0
  0
LINE
  5
90
330
1F
100
AcDbEntity
  8
0
100
AcDbLine
 10
3.172960680400766
 20
13.88487601019357
 30
0.0
 11
1.83700582498623
 21
11.48558198710307
 31
0.0
  0
LINE
  5
91
330
1F
100
AcDbEntity
  8
0
100
AcDbLine
 10
4.832298039056728
 20
13.39851510573624
 30
0.0
 11
4.588468198106822
 21
10.68934368679244
 31
0.0
  0
ARC
  5
92
330
1F
100
AcDbEntity
  8
0
100
AcDbCircle
 10
0.0035874643901718
 20
-0.0019989802908684
 30
0.0
 40
14.25461489048061
100
AcDbArc
 50
16.21313895953938
 51
22.86608663320892
  0
ARC
  5
93
330
1F
100
AcDbEntity
  8
0
100
AcDbCircle
 10
0.0035874643901718
 20
-0.0019989802908684
 30
0.0
 40
14.25461489048061
100
AcDbArc
 50
358.0786619149796
 51
4.662623614875271
  0
ARC
  5
94
330
1F
100
AcDbEntity
  8
0
100
AcDbCircle
 10
0.0035874643901718
 20
-0.0019989802908684
 30
0.0
 40
14.25461489048061
100
AcDbArc
 50
339.8901822095161
 51
346.430801459014
  0
ARC
  5
95
330
1F
100
AcDbEntity
  8
0
100
AcDbCircle
 10
0.0035874643901718
 20
-0.0019989802908684
 30
0.0
 40
14.25461489048061
100
AcDbArc
 50
321.6660338536803
 51
328.1933649955438
  0
ARC
  5
96
330
1F
100
AcDbEntity
  8
0
100
AcDbCircle
 10
0.0035874643901718
 20
-0.0019989802908684
 30
0.0
 40
14.25461489048061
100
AcDbArc
 50
303.4280792303916
 51
309.9735326071919
  0
ARC
  5
97
330
1F
100
AcDbEntity
  8
0
100
AcDbCircle
 10
0.0035874643901718
 20
-0.0019989802908684
 30
0.0
 40
14.25461489048061
100
AcDbArc
 50
248.857710653515
 51
255.6130274700154
  0
ARC
  5
98
330
1F
100
AcDbEntity
  8
0
100
AcDbCircle
 10
0.0035874643901718
 20
-0.0019989802908684
 30
0.0
 40
14.25461489048061
100
AcDbArc
 50
267.0030250735803
 51
273.6685490264081
  0
ARC
  5
99
330
1F
100
AcDbEntity
  8
0
100
AcDbCircle
 10
0.0035874643901718
 20
-0.0019989802908684
 30
0.0
 40
14.25461489048061
100
AcDbArc
 50
285.1996001670539
 51
291.7927343929584
  0
ARC
  5
9A
330
1F
100
AcDbEntity
  8
0
100
AcDbCircle
 10
0.0035874643901718
 20
-0.0019989802908684
 30
0.0
 40
14.25461489048061
100
AcDbArc
 50
123.6269400700984
 51
130.7686829362885
  0
ARC
  5
9B
330
1F
100
AcDbEntity
  8
0
100
AcDbCircle
 10
0.0035874643901718
 20
-0.0019989802908684
 30
0.0
 40
14.25461489048061
100
AcDbArc
 50
141.3889409102335
 51
148.5482386642703
  0
ARC
  5
9C
330
1F
100
AcDbEntity
  8
0
100
AcDbCircle
 10
0.0035874643901718
 20
-0.0019989802908684
 30
0.0
 40
11.63296777986607
100
AcDbArc
 50
152.2026191766111
 51
155.5010928669715
  0
ARC
  5
9D
330
1F
100
AcDbEntity
  8
0
100
AcDbCircle
 10
0.0035874643901718
 20
-0.0019989802908684
 30
0.0
 40
11.63296777986607
100
AcDbArc
 50
169.9056943144811
 51
173.2643288630208
  0
ARC
  5
9E
330
1F
100
AcDbEntity
  8
0
100
AcDbCircle
 10
0.0035874643901718
 20
-0.0019989802908684
 30
0.0
 40
14.25461489048061
100
AcDbArc
 50
159.1642540726122
 51
166.3106674552311
  0
ARC
  5
9F
330
1F
100
AcDbEntity
  8
0
100
AcDbCircle
 10
0.0035874643901718
 20
-0.0019989802908684
 30
0.0
 40
11.63296777986607
100
AcDbArc
 50
187.6166302454879
 51
191.0950629086374
  0
ARC
  5
A0
330
1F
100
AcDbEntity
  8
0
100
AcDbCircle
 10
0.0035874643901718
 20
-0.0019989802908684
 30
0.0
 40
11.63296777986607
100
AcDbArc
 50
205.3636060406438
 51
209.0100947711117
  0
ARC
  5
A1
330
1F
100
AcDbEntity
  8
0
100
AcDbCircle
 10
0.0035874643901718
 20
-0.0019989802908684
 30
0.0
 40
11.63296777986607
100
AcDbArc
 50
223.1711763269642
 51
227.0178783848359
  0
ARC
  5
A2
330
1F
100
AcDbEntity
  8
0
100
AcDbCircle
 10
0.0035874643901718
 20
-0.0019989802908684
 30
0.0
 40
11.63296777986607
100
AcDbArc
 50
241.0579486773429
 51
245.1176387314655
  0
ARC
  5
A3
330
1F
100
AcDbEntity
  8
0
100
AcDbCircle
 10
0.0035874643901718
 20
-0.0019989802908684
 30
0.0
 40
11.63296777986607
100
AcDbArc
 50
295.2590183749321
 51
299.8308506460106
  0
ARC
  5
A4
330
1F
100
AcDbEntity
  8
0
100
AcDbCircle
 10
0.0035874643901718
 20
-0.0019989802908684
 30
0.0
 40
11.63296777986607
100
AcDbArc
 50
313.4846573313486
 51
318.1280707934689
  0
ARC
  5
A5
330
1F
100
AcDbEntity
  8
0
100
AcDbCircle
 10
0.0035874643901718
 20
-0.0019989802908684
 30
0.0
 40
11.63296777986607
100
AcDbArc
 50
331.7591560554214
 51
336.4078746158455
  0
ARC
  5
A6
330
1F
100
AcDbEntity
  8
0
100
AcDbCircle
 10
0.0035874643901718
 20
-0.0019989802908684
 30
0.0
 40
11.63296777986607
100
AcDbArc
 50
350.0558179716363
 51
354.643027029684
  0
ARC
  5
A7
330
1F
100
AcDbEntity
  8
0
100
AcDbCircle
 10
0.0035874643901718
 20
-0.0019989802908684
 30
0.0
 40
11.63296777986607
100
AcDbArc
 50
62.90870274224807
 51
66.78838634391012
  0
ARC
  5
A8
330
1F
100
AcDbEntity
  8
0
100
AcDbCircle
 10
0.0035874643901718
 20
-0.0019989802908684
 30
0.0
 40
11.63296777986607
100
AcDbArc
 50
80.93206858916318
 51
84.60818380310924
  0
ARC
  5
A9
330
1F
100
AcDbEntity
  8
0
100
AcDbCircle
 10
0.0035874643901718
 20
-0.0019989802908684
 30
0.0
 40
11.63296777986607
100
AcDbArc
 50
98.86205127078983
 51
102.3639086137749
  0
ARC
  5
AA
330
1F
100
AcDbEntity
  8
0
100
AcDbCircle
 10
0.0035874643901718
 20
-0.0019989802908684
 30
0.0
 40
11.63296777986607
100
AcDbArc
 50
116.705620244029
 51
120.0792531874221
  0
ARC
  5
AB
330
1F
100
AcDbEntity
  8
0
100
AcDbCircle
 10
0.0035874643901718
 20
-0.0019989802908684
 30
0.0
 40
11.63296777986607
100
AcDbArc
 50
134.4783119773776
 51
137.7819462361751
  0
ARC
  5
AC
330
1F
100
AcDbEntity
  8
0
100
AcDbCircle
 10
0.0035874643901718
 20
-0.0019989802908684
 30
0.0
 40
14.25461489048061
100
AcDbArc
 50
230.7780029346236
 51
237.6315515388085
  0
ARC
  5
AD
330
1F
100
AcDbEntity
  8
0
100
AcDbCircle
 10
0.0035874643901718
 20
-0.0019989802908684
 30
0.0
 40
11.63296777986607
100
AcDbArc
 50
259.0348458989951
 51
263.2994530583922
  0
ARC
  5
AE
330
1F
100
AcDbEntity
  8
0
100
AcDbCircle
 10
0.0035874643901718
 20
-0.0019989802908684
 30
0.0
 40
11.63296777986607
100
AcDbArc
 50
277.1040943341943
 51
281.5452861446013
  0
ARC
  5
AF
330
1F
100
AcDbEntity
  8
0
100
AcDbCircle
 10
0.0035874643901718
 20
-0.0019989802908684
 30
0.0
 40
11.63296777986607
100
AcDbArc
 50
44.79428061691704
 51
48.88695594769804
  0
ARC
  5
B0
330
1F
100
AcDbEntity
  8
0
100
AcDbCircle
 10
0.0035874643901718
 20
-0.0019989802908684
 30
0.0
 40
11.63296777986607
100
AcDbArc
 50
8.345650600590774
 51
12.81073482527749
  0
ARC
  5
B1
330
1F
100
AcDbEntity
  8
0
100
AcDbCircle
 10
0.0035874643901718
 20
-0.0019989802908684
 30
0.0
 40
11.63296777986607
100
AcDbArc
 50
26.60018146904926
 51
30.8947935299439
  0
ARC
  5
B2
330
1F
100
AcDbEntity
  8
0
100
AcDbCircle
 10
0.0035874643901718
 20
-0.0019989802908684
 30
0.0
 40
14.25461489048061
100
AcDbArc
 50
176.9749475626376
 51
184.079239141213
  0
ARC
  5
B3
330
1F
100
AcDbEntity
  8
0
100
AcDbCircle
 10
0.0035874643901718
 20
-0.0019989802908684
 30
0.0
 40
14.25461489048061
100
AcDbArc
 50
194.8309229770044
 51
201.8850898837541
  0
ARC
  5
B4
330
1F
100
AcDbEntity
  8
0
100
AcDbCircle
 10
0.0035874643901718
 20
-0.0019989802908684
 30
0.0
 40
14.25461489048061
100
AcDbArc
 50
212.7717846498198
 51
219.7223260657389
  0
ARC
  5
B5
330
1F
100
AcDbEntity
  8
0
100
AcDbCircle
 10
0.0035874643901718
 20
-0.0019989802908684
 30
0.0
 40
14.25461489048061
100
AcDbArc
 50
88.05072854780035
 51
95.07529402595496
  0
ARC
  5
B6
330
1F
100
AcDbEntity
  8
0
100
AcDbCircle
 10
0.0035874643901718
 20
-0.0019989802908684
 30
0.0
 40
14.25461489048061
100
AcDbArc
 50
52.26170809902215
 51
59.11255067169363
  0
ARC
  5
B7
330
1F
100
AcDbEntity
  8
0
100
AcDbCircle
 10
0.0035874643901718
 20
-0.0019989802908684
 30
0.0
 40
14.25461489048061
100
AcDbArc
 50
34.28055895690773
 51
41.0211641380164
  0
ARC
  5
B8
330
1F
100
AcDbEntity
  8
0
100
AcDbCircle
 10
0.0035874643901718
 20
-0.0019989802908684
 30
0.0
 40
14.24395393083351
100
AcDbArc
 50
70.18399603960619
 51
77.14370178049782
  0
ARC
  5
B9
330
1F
100
AcDbEntity
  8
0
100
AcDbCircle
 10
0.0035874643901718
 20
-0.0019989802908684
 30
0.0
 40
14.25957317901262
100
AcDbArc
 50
105.860064616897
 51
112.9446013093531
  0
LINE
  5
BA
330
1F
100
AcDbEntity
  8
0
100
AcDbLine
 10
-2.850599455026698
 20
0.7385973115746839
 30
0.0
 11
-3.10987484309226
 21
0.1466667086325527
 31
0.0
  0
LINE
  5
BB
330
1F
100
AcDbEntity
  8
0
100
AcDbLine
 10
-3.028468635870225
 20
0.0221364390006924
 30
0.0
 11
-2.586513532419997
 21
0.0221364390006925
 31
0.0
  0
LINE
  5
BC
330
1F
100
AcDbEntity
  8
0
100
AcDbLine
 10
-2.514028796377134
 20
0.1330191840841485
 30
0.0
 11
-2.779282025773814
 21
0.7385973115746841
 31
0.0
  0
LINE
  5
BD
330
1F
100
AcDbEntity
  8
0
100
AcDbLine
 10
-2.627776636434942
 20
1.465171302277701
 30
0.0
 11
-1.626449124743881
 21
-0.8208782998849068
 31
0.0
  0
LINE
  5
BE
330
1F
100
AcDbEntity
  8
0
100
AcDbLine
 10
-1.404683634576969
 20
-0.965847771970633
 30
0.0
 11
-1.325550401975098
 21
-0.965847771970633
 31
0.0
  0
LINE
  5
BF
330
1F
100
AcDbEntity
  8
0
100
AcDbLine
 10
-1.246417169373227
 20
-1.044981004572504
 30
0.0
 11
-1.246417169373227
 21
-1.08391043320627
 31
0.0
  0
LINE
  5
C0
330
1F
100
AcDbEntity
  8
0
100
AcDbLine
 10
-1.285346598006992
 20
-1.122839861840035
 30
0.0
 11
-2.331075449183413
 21
-1.122839861840035
 31
0.0
  0
LINE
  5
C1
330
1F
100
AcDbEntity
  8
0
100
AcDbLine
 10
-2.161134916066766
 20
-0.6938040408694031
 30
0.0
 11
-2.356727910764328
 21
-0.2710231342599183
 31
0.0
  0
LINE
  5
C2
330
1F
100
AcDbEntity
  8
0
100
AcDbLine
 10
-2.43738732252812
 20
-0.2194659482079938
 30
0.0
 11
-3.178929944153767
 21
-0.2194659482079939
 31
0.0
  0
LINE
  5
C3
330
1F
100
AcDbEntity
  8
0
100
AcDbLine
 10
-3.134320643324528
 20
-1.124598253886035
 30
0.0
 11
-4.007507274987286
 21
-1.124598253886035
 31
0.0
  0
LINE
  5
C4
330
1F
100
AcDbEntity
  8
0
100
AcDbLine
 10
-3.757410944069055
 20
-0.886900786530285
 30
0.0
 11
-2.718405660382102
 21
1.465311690824963
 31
0.0
  0
LINE
  5
C5
330
1F
100
AcDbEntity
  8
0
100
AcDbLine
 10
-3.123745482099055
 20
-1.031183676442332
 30
0.0
 11
-3.170362035774054
 21
-1.031183676442332
 31
0.0
  0
LINE
  5
C6
330
1F
100
AcDbEntity
  8
0
100
AcDbLine
 10
-3.421237376871677
 20
-0.6524257650385239
 30
0.0
 11
-3.260761025692958
 21
-0.2736678536347161
 31
0.0
  0
LINE
  5
C7
330
1F
100
AcDbEntity
  8
0
100
AcDbLine
 10
-0.3778539198106674
 20
0.3748802681793886
 30
0.0
 11
-0.3778539198106673
 21
1.148582981896538
 31
0.0
  0
LINE
  5
C8
330
1F
100
AcDbEntity
  8
0
100
AcDbLine
 10
-1.214578921134979
 20
1.341292285144793
 30
0.0
 11
-1.07890066614056
 21
1.341292285144793
 31
0.0
  0
LINE
  5
C9
330
1F
100
AcDbEntity
  8
0
100
AcDbLine
 10
-0.8367942438164343
 20
1.099185862820667
 30
0.0
 11
-0.8367942438164341
 21
-0.8250087928739027
 31
0.0
  0
LINE
  5
CA
330
1F
100
AcDbEntity
  8
0
100
AcDbLine
 10
-1.082074755507713
 20
-1.032536976954003
 30
0.0
 11
-1.08208993423331
 21
-1.032536976954003
 31
0.0
  0
LINE
  5
CB
330
1F
100
AcDbEntity
  8
0
100
AcDbLine
 10
-1.043160505599545
 20
-1.127490147437955
 30
0.0
 11
-0.0276642900855816
 21
-1.127490147437954
 31
0.0
  0
LINE
  5
CC
330
1F
100
AcDbEntity
  8
0
100
AcDbLine
 10
-0.0317202993201066
 20
-1.032536976954003
 30
0.0
 11
-0.1465874431095792
 21
-1.032536976954003
 31
0.0
  0
LINE
  5
CD
330
1F
100
AcDbEntity
  8
0
100
AcDbLine
 10
-0.3541156271896795
 20
-0.8250087928739026
 30
0.0
 11
-0.3541156271896797
 21
0.0119423078375557
 31
0.0
  0
LINE
  5
CE
330
1F
100
AcDbEntity
  8
0
100
AcDbLine
 10
-0.2749823945878084
 20
0.091075540439427
 30
0.0
 11
-0.1535604066902394
 21
0.091075540439427
 31
0.0
  0
SPLINE
  5
CF
330
1F
100
AcDbEntity
  8
0
100
AcDbSpline
210
0.0
220
0.0
230
1.0
 70
     8
 71
     3
 72
    12
 73
     8
 74
     0
 42
0.000000001
 43
0.00000001
 40
0.0829546739573697
 40
0.0829546739573697
 40
0.0829546739573697
 40
0.0829546739573697
 40
0.1567106083881097
 40
0.4356647547100678
 40
0.6836172081862565
 40
0.8465480076001687
 40
0.9601968536442467
 40
0.9601968536442467
 40
0.9601968536442467
 40
0.9601968536442467
 10
-0.1736892517679726
 20
1.356083907069055
 30
0.0
 10
-0.1138106548506147
 20
1.357054517768067
 30
0.0
 10
0.1685197354221522
 20
1.33992759729223
 30
0.0
 10
0.5875327810699008
 20
0.9758571098711964
 30
-0.0000000000000001
 10
0.4320366819626147
 20
0.2318226692980273
 30
-0.0000000000000001
 10
0.0206129929622834
 20
0.2971083231709709
 30
0.0
 10
-0.1956701163058742
 20
0.290590793960075
 30
0.0
 10
-0.2845138996735774
 20
0.2861195964174018
 30
0.0000000000000001
  0
ARC
  5
D0
330
1F
100
AcDbEntity
  8
0
100
AcDbCircle
 10
-0.170325735730567
 20
1.148582981896539
 30
0.0
 40
0.2075281840801003
100
AcDbArc
 50
90.9286628166984
 51
180.0
  0
ARC
  5
D1
330
1F
100
AcDbEntity
  8
0
100
AcDbCircle
 10
-0.2889809144992033
 20
0.3748802681793886
 30
0.0
 40
0.0888730053114642
100
AcDbArc
 50
180.0
 51
272.8810659079949
  0
ARC
  5
D2
330
1F
100
AcDbEntity
  8
0
100
AcDbCircle
 10
-1.404683634576969
 20
-0.7237413496465073
 30
0.0
 40
0.2421064223241257
100
AcDbArc
 50
203.6542133509102
 51
270.0
  0
ARC
  5
D3
330
1F
100
AcDbEntity
  8
0
100
AcDbCircle
 10
-1.325550401975098
 20
-1.044981004572504
 30
0.0
 40
0.0791332326018712
100
AcDbArc
 50
0.0000000000000102
 51
90.00000000000001
  0
ARC
  5
D4
330
1F
100
AcDbEntity
  8
0
100
AcDbCircle
 10
-1.285346598006992
 20
-1.08391043320627
 30
0.0
 40
0.0389294286337655
100
AcDbArc
 50
270.0
 51
0.0000000000000127
  0
ARC
  5
D5
330
1F
100
AcDbEntity
  8
0
100
AcDbCircle
 10
-2.341650600406487
 20
-1.073335271980797
 30
0.0
 40
0.0389294386361637
100
AcDbArc
 50
97.97128017697332
 51
180.0
  0
ARC
  5
D6
330
1F
100
AcDbEntity
  8
0
100
AcDbCircle
 10
-2.331075449183413
 20
-1.073335271980797
 30
0.0
 40
0.0495045898592382
100
AcDbArc
 50
180.0
 51
270.0
  0
ARC
  5
D7
330
1F
100
AcDbEntity
  8
0
100
AcDbCircle
 10
-2.38058003298681
 20
-0.7953269027563385
 30
0.0
 40
0.2417913373670895
100
AcDbArc
 50
277.9712801769734
 51
24.8268850306904
  0
ARC
  5
D8
330
1F
100
AcDbEntity
  8
0
100
AcDbCircle
 10
-2.43738732252812
 20
-0.3083389535194576
 30
0.0
 40
0.0888730053114639
100
AcDbArc
 50
24.82688503069039
 51
90.00000000000001
  0
ARC
  5
D9
330
1F
100
AcDbEntity
  8
0
100
AcDbCircle
 10
-3.178929944153767
 20
-0.3083389535194578
 30
0.0
 40
0.088873005311464
100
AcDbArc
 50
90.00000000000001
 51
157.0380595128568
  0
ARC
  5
DA
330
1F
100
AcDbEntity
  8
0
100
AcDbCircle
 10
-3.170362035774054
 20
-0.7587194110005242
 30
0.0
 40
0.2724642654418076
100
AcDbArc
 50
157.0380595128568
 51
270.0
  0
ARC
  5
DB
330
1F
100
AcDbEntity
  8
0
100
AcDbCircle
 10
-3.123745482099055
 20
-1.070113105076097
 30
0.0
 40
0.0389294286337655
100
AcDbArc
 50
356.5528729233757
 51
89.99999999999999
  0
ARC
  5
DC
330
1F
100
AcDbEntity
  8
0
100
AcDbCircle
 10
-3.134320643324528
 20
-1.075093664026797
 30
0.0
 40
0.0495045898592384
100
AcDbArc
 50
270.0
 51
3.056747593545955
  0
ARC
  5
DD
330
1F
100
AcDbEntity
  8
0
100
AcDbCircle
 10
-4.007507274987286
 20
-1.085668825252269
 30
0.0
 40
0.0389294286337655
100
AcDbArc
 50
168.4750963017114
 51
270.0
  0
ARC
  5
DE
330
1F
100
AcDbEntity
  8
0
100
AcDbCircle
 10
-4.007737546835508
 20
-1.069058677329861
 30
0.0
 40
0.0389294286337655
100
AcDbArc
 50
84.14246601791399
 51
193.1134219479906
  0
ARC
  5
DF
330
1F
100
AcDbEntity
  8
0
100
AcDbCircle
 10
-3.979056359178688
 20
-0.789490190196862
 30
0.0
 40
0.2421064223241252
100
AcDbArc
 50
264.1424660179139
 51
336.2750665945646
  0
ARC
  5
E0
330
1F
100
AcDbEntity
  8
0
100
AcDbCircle
 10
-2.586513532419997
 20
0.1012696716025638
 30
0.0
 40
0.0791332326018713
100
AcDbArc
 50
270.0
 51
23.65421335091026
  0
ARC
  5
E1
330
1F
100
AcDbEntity
  8
0
100
AcDbCircle
 10
-3.028468635870225
 20
0.1110094443121567
 30
0.0
 40
0.0888730053114643
100
AcDbArc
 50
156.3457866490897
 51
270.0
  0
ARC
  5
E2
330
1F
100
AcDbEntity
  8
0
100
AcDbCircle
 10
-2.814940740400257
 20
0.7229782051680606
 30
0.0
 40
0.0389294286337654
100
AcDbArc
 50
23.65421335091026
 51
156.3457866490897
  0
ARC
  5
E3
330
1F
100
AcDbEntity
  8
0
100
AcDbCircle
 10
-2.673122024344347
 20
1.445309272862838
 30
0.0
 40
0.0495045898592382
100
AcDbArc
 50
23.65421335091026
 51
156.1682791693444
  0
ARC
  5
E4
330
1F
100
AcDbEntity
  8
0
100
AcDbCircle
 10
-0.0317202993201065
 20
-1.082041566813241
 30
0.0
 40
0.0495045898592382
100
AcDbArc
 50
0.0000000000000127
 51
90.00000000000001
  0
ARC
  5
E5
330
1F
100
AcDbEntity
  8
0
100
AcDbCircle
 10
-0.0276642900855816
 20
-1.082041566813241
 30
0.0
 40
0.0454485806247132
100
AcDbArc
 50
270.0
 51
0.0
  0
ARC
  5
E6
330
1F
100
AcDbEntity
  8
0
100
AcDbCircle
 10
-0.1465874431095792
 20
-0.8250087928739025
 30
0.0
 40
0.2075281840801003
100
AcDbArc
 50
180.0
 51
270.0
  0
ARC
  5
E7
330
1F
100
AcDbEntity
  8
0
100
AcDbCircle
 10
-1.044322427896534
 20
-0.8250087928739027
 30
0.0
 40
0.2075281840801003
100
AcDbArc
 50
270.2701214608162
 51
0.0000000000000102
  0
ARC
  5
E8
330
1F
100
AcDbEntity
  8
0
100
AcDbCircle
 10
-1.043160505599545
 20
-1.088560718804189
 30
0.0
 40
0.0389294286337655
100
AcDbArc
 50
167.3150277429802
 51
270.0
  0
ARC
  5
E9
330
1F
100
AcDbEntity
  8
0
100
AcDbCircle
 10
-1.043160505599208
 20
-1.071463666636542
 30
0.0
 40
0.0389294286341015
100
AcDbArc
 50
90.27012146081614
 51
192.6849722569646
  0
ARC
  5
EA
330
1F
100
AcDbEntity
  8
0
100
AcDbCircle
 10
-0.2749823945878084
 20
0.0119423078375558
 30
0.0
 40
0.0791332326018712
100
AcDbArc
 50
90.0
 51
180.0
  0
ARC
  5
EB
330
1F
100
AcDbEntity
  8
0
100
AcDbCircle
 10
-1.07890066614056
 20
1.099185862820667
 30
0.0
 40
0.2421064223241257
100
AcDbArc
 50
0.0000000000000127
 51
90.00000000000001
  0
ARC
  5
EC
330
1F
100
AcDbEntity
  8
0
100
AcDbCircle
 10
-1.214578921134979
 20
1.399544940295344
 30
0.0
 40
0.058252655150551
100
AcDbArc
 50
176.0059086855565
 51
270.0
  0
LINE
  5
ED
330
1F
100
AcDbEntity
  8
0
100
AcDbLine
 10
-1.225154082360452
 20
1.452070984042736
 30
0.0
 11
0.329461703473327
 21
1.452070984042737
 31
0.0
  0
LINE
  5
EE
330
1F
100
AcDbEntity
  8
0
100
AcDbLine
 10
0.9610308237670232
 20
0.8205018637490408
 30
0.0
 11
0.9610308237670231
 21
0.7518378671163414
 31
0.0
  0
ARC
  5
EF
330
1F
100
AcDbEntity
  8
0
100
AcDbCircle
 10
-1.225154082360452
 20
1.404526001125014
 30
0.0
 40
0.0475449829177223
100
AcDbArc
 50
90.0
 51
181.1130314570444
  0
ARC
  5
F0
330
1F
100
AcDbEntity
  8
0
100
AcDbCircle
 10
0.329461703473327
 20
0.8205018637490407
 30
0.0
 40
0.631569120293696
100
AcDbArc
 50
0.0
 51
90.00000000000001
  0
ARC
  5
F1
330
1F
100
AcDbEntity
  8
0
100
AcDbCircle
 10
0.3981257001060259
 20
0.7518378671163416
 30
0.0
 40
0.5629051236609972
100
AcDbArc
 50
281.8543823418069
 51
0.0
  0
LINE
  5
F2
330
1F
100
AcDbEntity
  8
0
100
AcDbLine
 10
0.0746695129637623
 20
-0.0325670877399457
 30
0.0
 11
0.6841273205238931
 21
-0.9672195281419234
 31
0.0
  0
LINE
  5
F3
330
1F
100
AcDbEntity
  8
0
100
AcDbLine
 10
1.06377686911045
 20
-1.118573146999585
 30
0.0
 11
1.418417485687132
 21
-1.033942999861967
 31
0.0
  0
LINE
  5
F4
330
1F
100
AcDbEntity
  8
0
100
AcDbLine
 10
1.45612726312506
 20
-0.9495554719666792
 30
0.0
 11
1.434467237814498
 21
-0.9095325565634369
 31
0.0
  0
LINE
  5
F5
330
1F
100
AcDbEntity
  8
0
100
AcDbLine
 10
1.07412614886148
 20
-0.772175874517441
 30
0.0
 11
0.5137605146699536
 21
0.2009379053223979
 31
0.0
  0
ARC
  5
F6
330
1F
100
AcDbEntity
  8
0
100
AcDbCircle
 10
-0.1535604066902394
 20
-0.1813887250023806
 30
0.0
 40
0.2724642654418077
100
AcDbArc
 50
33.10712123022406
 51
90.00000000000001
  0
ARC
  5
F7
330
1F
100
AcDbEntity
  8
0
100
AcDbCircle
 10
0.9814004986405803
 20
-0.7733769278877498
 30
0.0
 40
0.3548891321256469
100
AcDbArc
 50
213.107121230224
 51
283.4218350678862
  0
ARC
  5
F8
330
1F
100
AcDbEntity
  8
0
100
AcDbCircle
 10
1.404895960604655
 20
-0.9772813709449218
 30
0.0
 40
0.0582526551505509
100
AcDbArc
 50
283.4218350678861
 51
28.42183506788612
  0
ARC
  5
F9
330
1F
100
AcDbEntity
  8
0
100
AcDbCircle
 10
1.381488413060608
 20
-0.9361897716098135
 30
0.0
 40
0.0593073576725021
100
AcDbArc
 50
26.71004795790376
 51
102.9910823859463
  0
ARC
  5
FA
330
1F
100
AcDbEntity
  8
0
100
AcDbCircle
 10
1.283759812267701
 20
-0.6510592707066482
 30
0.0
 40
0.2421064223241259
100
AcDbArc
 50
210.0173288577293
 51
283.4451531102948
  0
SPLINE
  5
FB
330
1F
100
AcDbEntity
  8
0
100
AcDbSpline
210
0.0
220
0.0
230
1.0
 70
     8
 71
     3
 72
    15
 73
    11
 74
     0
 42
0.000000001
 43
0.00000001
 40
0.0101467227943211
 40
0.0101467227943211
 40
0.0101467227943211
 40
0.0101467227943211
 40
0.1082620206452502
 40
0.2512867276232334
 40
0.4322999052506852
 40
0.6034771899162669
 40
0.72820394070908
 40
0.8204076538788944
 40
0.9539183298226754
 40
0.9870932155149752
 40
0.9870932155149752
 40
0.9870932155149752
 40
0.9870932155149752
 10
3.707613652701448
 20
-0.4507544224634243
 30
-0.0000000000000007
 10
3.584625167699093
 20
-0.5910805471954951
 30
-0.0000000000000007
 10
3.273822495906399
 20
-0.924116996798801
 30
-0.0000000000000006
 10
2.338062422884591
 20
-0.9633298278650253
 30
-0.0000000000000004
 10
1.814654605297703
 20
-0.0256502590170329
 30
-0.0000000000000004
 10
1.892873476922831
 20
0.8951290113550913
 30
-0.0000000000000004
 10
2.4897410515467
 20
1.492205724561996
 30
-0.0000000000000005
 10
3.194882997924578
 20
1.289469340981791
 30
-0.0000000000000006
 10
3.499512607301988
 20
1.013462254859224
 30
-0.0000000000000007
 10
3.689985535150418
 20
0.6279988984580475
 30
-0.0000000000000007
 10
3.70500682948934
 20
0.5782498778045627
 30
-0.0000000000000007
  0
LINE
  5
FC
330
1F
100
AcDbEntity
  8
0
100
AcDbLine
 10
3.802841942739307
 20
0.5734330771516685
 30
0.0
 11
3.802841942739307
 21
1.372774939150404
 31
0.0
  0
LINE
  5
FD
330
1F
100
AcDbEntity
  8
0
100
AcDbLine
 10
3.650743281665021
 20
1.420319922068126
 30
0.0
 11
3.650743281665021
 21
1.341957402326811
 31
0.0
  0
SPLINE
  5
FE
330
1F
100
AcDbEntity
  8
0
100
AcDbSpline
210
0.0
220
0.0
230
1.0
 70
     8
 71
     3
 72
    15
 73
    11
 74
     0
 42
0.000000001
 43
0.00000001
 40
0.0165674617886526
 40
0.0165674617886526
 40
0.0165674617886526
 40
0.0165674617886526
 40
0.1025433983980173
 40
0.2147820040649033
 40
0.3165539925145699
 40
0.5041694542935379
 40
0.652689511109197
 40
0.8141828003161063
 40
0.9454156825211839
 40
0.9929399720337065
 40
0.9929399720337065
 40
0.9929399720337065
 40
0.9929399720337065
 10
3.539410387787894
 20
1.269671509402627
 30
-0.0000000000000007
 10
3.375931175744245
 20
1.361894771501663
 30
-0.0000000000000007
 10
2.99903551790288
 20
1.574512306187432
 30
-0.0000000000000006
 10
2.309637021986807
 20
1.53419603212165
 30
-0.0000000000000005
 10
1.548680592860468
 20
1.042699708136434
 30
-0.0000000000000003
 10
1.305830591330953
 20
0.0163318911437847
 30
-0.0000000000000003
 10
1.770074258711767
 20
-1.035666619706783
 30
-0.0000000000000003
 10
2.831443559137953
 20
-1.299279131356664
 30
-0.0000000000000005
 10
3.487961166129493
 20
-0.9045838548747235
 30
-0.0000000000000007
 10
3.754433130796436
 20
-0.6270323874480587
 30
-0.0000000000000007
 10
3.825277229940099
 20
-0.553242697412861
 30
-0.0000000000000007
  0
LINE
  5
FF
330
1F
100
AcDbEntity
  8
0
100
AcDbLine
 10
3.789565937453671
 20
-0.4451227118777562
 30
0.0
 11
3.816101839259257
 21
-0.4681127504367515
 31
0.0
  0
ARC
  5
100
330
1F
100
AcDbEntity
  8
0
100
AcDbCircle
 10
3.75142181805607
 20
-0.4891499806532257
 30
0.0
 40
0.0582526758221961
100
AcDbArc
 50
49.09516554890129
 51
138.7671352410627
  0
ARC
  5
101
330
1F
100
AcDbEntity
  8
0
100
AcDbCircle
 10
3.774953877300142
 20
-0.5156071587321144
 30
0.0
 40
0.0628400635957297
100
AcDbArc
 50
323.2081323668505
 51
49.09516554890124
  0
ARC
  5
102
330
1F
100
AcDbEntity
  8
0
100
AcDbCircle
 10
3.571610049062854
 20
1.341957402326811
 30
0.0
 40
0.0791332326021665
100
AcDbArc
 50
245.9894775956527
 51
0.0000000000000102
  0
ARC
  5
103
330
1F
100
AcDbEntity
  8
0
100
AcDbCircle
 10
3.729105801406337
 20
1.341957402326811
 30
0.0
 40
0.078362519741316
100
AcDbArc
 50
79.15668479553864
 51
180.0
  0
ARC
  5
104
330
1F
100
AcDbEntity
  8
0
100
AcDbCircle
 10
3.755296959821584
 20
1.372774939150404
 30
0.0
 40
0.0475449829177225
100
AcDbArc
 50
0.0000000000000102
 51
103.9343411313013
  0
ARC
  5
105
330
1F
100
AcDbEntity
  8
0
100
AcDbCircle
 10
3.763912514105542
 20
0.5734330771516685
 30
0.0
 40
0.0389294286337656
100
AcDbArc
 50
269.9999999999999
 51
0.0000000000000102
  0
ARC
  5
106
330
1F
100
AcDbEntity
  8
0
100
AcDbCircle
 10
3.763912514105542
 20
0.5960359490735295
 30
0.0
 40
0.0615323005556266
100
AcDbArc
 50
196.8012448869268
 51
270.0
  0
ARC
  5
107
330
1F
100
AcDbEntity
  8
0
100
AcDbCircle
 10
-3.902014562957298
 20
3.462567401738404
 30
0.0
 40
0.0888828866957144
100
AcDbArc
 50
205.8171841982454
 51
341.9014699744073
  0
ARC
  5
108
330
1F
100
AcDbEntity
  8
0
100
AcDbCircle
 10
-0.4201130017138122
 20
5.125637651142524
 30
0.0
 40
0.0888828866957144
100
AcDbArc
 50
160.8171841982454
 51
296.9014699744073
  0
ARC
  5
109
330
1F
100
AcDbEntity
  8
0
100
AcDbCircle
 10
-0.1535604066902395
 20
0.091075540439427
 30
0.0
 40
8.279281363976182
100
AcDbArc
 50
1.917124268487996
 51
31.31317708775233
  0
ARC
  5
10A
330
1F
100
AcDbEntity
  8
0
100
AcDbCircle
 10
6.428741454126145
 20
-2.797269231483274
 30
0.0
 40
7.46156224132804
100
AcDbArc
 50
89.91586076302684
 51
115.8171841982449
  0
ARC
  5
10B
330
1F
100
AcDbEntity
  8
0
100
AcDbCircle
 10
0.1878762515814254
 20
-5.431741334324362
 30
0.0
 40
9.664972815754709
100
AcDbArc
 50
36.46353050116898
 51
71.90146997440736
  0
ARC
  5
10C
330
1F
100
AcDbEntity
  8
0
100
AcDbCircle
 10
6.438872224549833
 20
4.101414333105481
 30
0.0
 40
0.5628712381857484
100
AcDbArc
 50
31.31317708775233
 51
89.91586076302694
  0
ARC
  5
10D
330
1F
100
AcDbEntity
  8
0
100
AcDbCircle
 10
8.032263469846148
 20
0.3650765398778875
 30
0.0
 40
0.0888730050867111
100
AcDbArc
 50
216.4635305011692
 51
1.91712426848801
  0
ARC
  5
10E
330
1F
100
AcDbEntity
  8
0
100
AcDbCircle
 10
3.217931454608738
 20
3.839529696706485
 30
0.0
 40
0.0888828866957144
100
AcDbArc
 50
115.8171841982454
 51
251.9014699744073
  0
ARC
  5
10F
330
1F
100
AcDbEntity
  8
0
100
AcDbCircle
 10
-0.1535604066902395
 20
0.091075540439427
 30
0.0
 40
8.279281363976182
100
AcDbArc
 50
316.917124268488
 51
346.3131770877523
  0
ARC
  5
110
330
1F
100
AcDbEntity
  8
0
100
AcDbCircle
 10
2.458461700278603
 20
-6.605682915791923
 30
0.0
 40
7.46156224132804
100
AcDbArc
 50
44.91586076302683
 51
70.81718419824489
  0
ARC
  5
111
330
1F
100
AcDbEntity
  8
0
100
AcDbCircle
 10
-3.817349493677641
 20
-4.055577899367112
 30
0.0
 40
9.664972815754709
100
AcDbArc
 50
351.463530501169
 51
26.90146997440738
  0
ARC
  5
112
330
1F
100
AcDbEntity
  8
0
100
AcDbCircle
 10
7.343731166524728
 20
-1.734740522476264
 30
0.0
 40
0.5628712381857484
100
AcDbArc
 50
346.3131770877523
 51
44.91586076302694
  0
ARC
  5
113
330
1F
100
AcDbEntity
  8
0
100
AcDbCircle
 10
5.828439130762219
 20
-5.503428067503379
 30
0.0
 40
0.0888730050867111
100
AcDbArc
 50
171.4635305011692
 51
316.917124268488
  0
ARC
  5
114
330
1F
100
AcDbEntity
  8
0
100
AcDbCircle
 10
4.881001704012858
 20
0.357628135463
 30
0.0
 40
0.0888828866957144
100
AcDbArc
 50
70.81718419824536
 51
206.9014699744073
  0
ARC
  5
115
330
1F
100
AcDbEntity
  8
0
100
AcDbCircle
 10
-0.1535604066902395
 20
0.091075540439427
 30
0.0
 40
8.279281363976182
100
AcDbArc
 50
271.917124268488
 51
301.3131770877523
  0
ARC
  5
116
330
1F
100
AcDbEntity
  8
0
100
AcDbCircle
 10
-3.041905178612941
 20
-6.491226320376959
 30
0.0
 40
7.46156224132804
100
AcDbArc
 50
359.9158607630268
 51
25.81718419824491
  0
ARC
  5
117
330
1F
100
AcDbEntity
  8
0
100
AcDbCircle
 10
-5.676377281454029
 20
-0.2503611178322379
 30
0.0
 40
9.664972815754709
100
AcDbArc
 50
306.463530501169
 51
341.9014699744074
  0
ARC
  5
118
330
1F
100
AcDbEntity
  8
0
100
AcDbCircle
 10
3.856778385975815
 20
-6.501357090800646
 30
0.0
 40
0.5628712381857484
100
AcDbArc
 50
301.3131770877523
 51
359.915860763027
  0
ARC
  5
119
330
1F
100
AcDbEntity
  8
0
100
AcDbCircle
 10
0.120440592748221
 20
-8.09474833609696
 30
0.0
 40
0.0888730050867111
100
AcDbArc
 50
126.4635305011692
 51
271.917124268488
  0
ARC
  5
11A
330
1F
100
AcDbEntity
  8
0
100
AcDbCircle
 10
3.594893749576818
 20
-3.280416320859551
 30
0.0
 40
0.0888828866957144
100
AcDbArc
 50
25.81718419824536
 51
161.9014699744073
  0
ARC
  5
11B
330
1F
100
AcDbEntity
  8
0
100
AcDbCircle
 10
-0.1535604066902395
 20
0.0910755404394271
 30
0.0
 40
8.279281363976182
100
AcDbArc
 50
226.917124268488
 51
256.3131770877523
  0
ARC
  5
11C
330
1F
100
AcDbEntity
  8
0
100
AcDbCircle
 10
-6.85031886292159
 20
-2.520946566529415
 30
0.0
 40
7.46156224132804
100
AcDbArc
 50
314.9158607630268
 51
340.8171841982449
  0
ARC
  5
11D
330
1F
100
AcDbEntity
  8
0
100
AcDbCircle
 10
-4.300213846496779
 20
3.754864627426829
 30
0.0
 40
9.664972815754709
100
AcDbArc
 50
261.463530501169
 51
296.9014699744074
  0
ARC
  5
11E
330
1F
100
AcDbEntity
  8
0
100
AcDbCircle
 10
-1.97937646960593
 20
-7.40621603277554
 30
0.0
 40
0.5628712381857484
100
AcDbArc
 50
256.3131770877523
 51
314.915860763027
  0
ARC
  5
11F
330
1F
100
AcDbEntity
  8
0
100
AcDbCircle
 10
-5.748064014633044
 20
-5.890923997013032
 30
0.0
 40
0.0888730050867111
100
AcDbArc
 50
81.4635305011692
 51
226.917124268488
  0
ARC
  5
120
330
1F
100
AcDbEntity
  8
0
100
AcDbCircle
 10
0.1129921883333339
 20
-4.94348657026367
 30
0.0
 40
0.0888828866957144
100
AcDbArc
 50
340.8171841982453
 51
116.9014699744073
  0
ARC
  5
121
330
1F
100
AcDbEntity
  8
0
100
AcDbCircle
 10
-0.1535604066902395
 20
0.091075540439427
 30
0.0
 40
8.279281363976182
100
AcDbArc
 50
181.917124268488
 51
211.3131770877524
  0
ARC
  5
122
330
1F
100
AcDbEntity
  8
0
100
AcDbCircle
 10
-6.735862267506627
 20
2.979420312362128
 30
0.0
 40
7.46156224132804
100
AcDbArc
 50
269.9158607630268
 51
295.8171841982449
  0
ARC
  5
123
330
1F
100
AcDbEntity
  8
0
100
AcDbCircle
 10
-0.4949970649619047
 20
5.613892415203216
 30
0.0
 40
9.664972815754709
100
AcDbArc
 50
216.463530501169
 51
251.9014699744073
  0
ARC
  5
124
330
1F
100
AcDbEntity
  8
0
100
AcDbCircle
 10
-6.745993037930313
 20
-3.919263252226627
 30
0.0
 40
0.5628712381857484
100
AcDbArc
 50
211.3131770877523
 51
269.915860763027
  0
ARC
  5
125
330
1F
100
AcDbEntity
  8
0
100
AcDbCircle
 10
-8.339384283226629
 20
-0.1829254589990343
 30
0.0
 40
0.0888730050867111
100
AcDbArc
 50
36.46353050116925
 51
181.917124268488
  0
ARC
  5
126
330
1F
100
AcDbEntity
  8
0
100
AcDbCircle
 10
-3.525052267989218
 20
-3.657378615827631
 30
0.0
 40
0.0888828866957144
100
AcDbArc
 50
295.8171841982453
 51
71.90146997440729
  0
ARC
  5
127
330
1F
100
AcDbEntity
  8
0
100
AcDbCircle
 10
-0.1535604066902395
 20
0.0910755404394271
 30
0.0
 40
8.279281363976182
100
AcDbArc
 50
136.917124268488
 51
166.3131770877523
  0
ARC
  5
128
330
1F
100
AcDbEntity
  8
0
100
AcDbCircle
 10
-2.765582513659082
 20
6.787833996670776
 30
0.0
 40
7.46156224132804
100
AcDbArc
 50
224.9158607630269
 51
250.8171841982449
  0
ARC
  5
129
330
1F
100
AcDbEntity
  8
0
100
AcDbCircle
 10
3.510228680297162
 20
4.237728980245967
 30
0.0
 40
9.664972815754709
100
AcDbArc
 50
171.463530501169
 51
206.9014699744074
  0
ARC
  5
12A
330
1F
100
AcDbEntity
  8
0
100
AcDbCircle
 10
-7.650851979905207
 20
1.916891603355118
 30
0.0
 40
0.5628712381857484
100
AcDbArc
 50
166.3131770877523
 51
224.9158607630269
  0
ARC
  5
12B
330
1F
100
AcDbEntity
  8
0
100
AcDbCircle
 10
-6.135559944142699
 20
5.685579148382232
 30
0.0
 40
0.0888730050867111
100
AcDbArc
 50
351.4635305011692
 51
136.917124268488
  0
ARC
  5
12C
330
1F
100
AcDbEntity
  8
0
100
AcDbCircle
 10
-5.188122517393336
 20
-0.1754770545841465
 30
0.0
 40
0.0888828866957144
100
AcDbArc
 50
250.8171841982454
 51
26.9014699744073
  0
ARC
  5
12D
330
1F
100
AcDbEntity
  8
0
100
AcDbCircle
 10
-0.1535604066902395
 20
0.0910755404394271
 30
0.0
 40
8.279281363976182
100
AcDbArc
 50
91.91712426848801
 51
121.3131770877524
  0
ARC
  5
12E
330
1F
100
AcDbEntity
  8
0
100
AcDbCircle
 10
2.734784365232461
 20
6.673377401255814
 30
0.0
 40
7.46156224132804
100
AcDbArc
 50
179.9158607630268
 51
205.8171841982449
  0
ARC
  5
12F
330
1F
100
AcDbEntity
  8
0
100
AcDbCircle
 10
5.369256468073548
 20
0.4325121987110929
 30
0.0
 40
9.664972815754709
100
AcDbArc
 50
126.463530501169
 51
161.9014699744074
  0
ARC
  5
130
330
1F
100
AcDbEntity
  8
0
100
AcDbCircle
 10
-4.163899199356294
 20
6.683508171679499
 30
0.0
 40
0.5628712381857484
100
AcDbArc
 50
121.3131770877523
 51
179.9158607630269
  0
ARC
  5
131
330
1F
100
AcDbEntity
  8
0
100
AcDbCircle
 10
-0.4275614061287012
 20
8.276899416975814
 30
0.0
 40
0.0888730050867111
100
AcDbArc
 50
306.4635305011693
 51
91.91712426848802
  0
ARC
  5
132
330
1F
100
AcDbEntity
  8
0
100
AcDbCircle
 10
-0.1535604066902395
 20
0.091075540439427
 30
0.0
 40
8.279281363976182
100
AcDbArc
 50
46.917124268488
 51
76.31317708775234
  0
ARC
  5
133
330
1F
100
AcDbEntity
  8
0
100
AcDbCircle
 10
6.543198049541111
 20
2.703097647408269
 30
0.0
 40
7.46156224132804
100
AcDbArc
 50
134.9158607630268
 51
160.8171841982449
  0
ARC
  5
134
330
1F
100
AcDbEntity
  8
0
100
AcDbCircle
 10
3.993093033116299
 20
-3.572713546547975
 30
0.0
 40
9.664972815754709
100
AcDbArc
 50
81.46353050116899
 51
116.9014699744074
  0
ARC
  5
135
330
1F
100
AcDbEntity
  8
0
100
AcDbCircle
 10
1.672255656225452
 20
7.588367113654394
 30
0.0
 40
0.5628712381857484
100
AcDbArc
 50
76.31317708775234
 51
134.9158607630269
  0
ARC
  5
136
330
1F
100
AcDbEntity
  8
0
100
AcDbCircle
 10
5.440943201252566
 20
6.073075077891885
 30
0.0
 40
0.0888730050867111
100
AcDbArc
 50
261.4635305011692
 51
46.91712426848801
  0
ENDSEC
  0
SECTION
  2
OBJECTS
  0
DICTIONARY
  5
C
330
0
100
AcDbDictionary
281
     1
  3
ACAD_DETAILVIEWSTYLE
350
13B
  3
ACAD_GROUP
350
D
  3
ACAD_LAYOUT
350
1A
  3
ACAD_MATERIAL
350
43
  3
ACAD_MLEADERSTYLE
350
13A
  3
ACAD_MLINESTYLE
350
17
  3
ACAD_PLOTSETTINGS
350
19
  3
ACAD_PLOTSTYLENAME
350
E
  3
ACAD_SCALELIST
350
47
  3
ACAD_SECTIONVIEWSTYLE
350
13C
  3
ACAD_TABLESTYLE
350
139
  3
ACAD_VISUALSTYLE
350
2A
  3
AcDbVariableDictionary
350
137
  0
SUN
  5
69
330
29
100
AcDbSun
 90
        1
290
     0
 63
     7
421
 16777215
 40
1.0
291
     1
 91
  2455826
 92
 54000000
292
     0
 70
     2
 71
   256
280
     1
  0
DICTIONARY
  5
13B
102
{ACAD_REACTORS
330
C
102
}
330
C
100
AcDbDictionary
281
     1
  0
DICTIONARY
  5
D
102
{ACAD_REACTORS
330
C
102
}
330
C
100
AcDbDictionary
281
     1
  0
DICTIONARY
  5
1A
102
{ACAD_REACTORS
330
C
102
}
330
C
100
AcDbDictionary
281
     1
  3
Layout1
350
1E
  3
Layout2
350
26
  3
Model
350
22
  0
DICTIONARY
  5
43
102
{ACAD_REACTORS
330
C
102
}
330
C
100
AcDbDictionary
281
     1
  3
ByBlock
350
45
  3
ByLayer
350
44
  3
Global
350
46
  0
DICTIONARY
  5
13A
102
{ACAD_REACTORS
330
C
102
}
330
C
100
AcDbDictionary
281
     1
  0
DICTIONARY
  5
17
102
{ACAD_REACTORS
330
C
102
}
330
C
100
AcDbDictionary
281
     1
  3
Standard
350
18
  0
DICTIONARY
  5
19
102
{ACAD_REACTORS
330
C
102
}
330
C
100
AcDbDictionary
281
     1
  0
ACDBDICTIONARYWDFLT
  5
E
102
{ACAD_REACTORS
330
C
102
}
330
C
100
AcDbDictionary
281
     1
  3
Normal
350
F
100
AcDbDictionaryWithDefault
340
F
  0
DICTIONARY
  5
47
102
{ACAD_REACTORS
330
C
102
}
330
C
100
AcDbDictionary
281
     1
  3
A0
350
48
  3
A1
350
49
  3
A2
350
4A
  3
A3
350
4B
  3
A4
350
4C
  3
A5
350
4D
  3
A6
350
4E
  3
A7
350
4F
  3
A8
350
50
  3
A9
350
51
  3
B0
350
52
  3
B1
350
53
  3
B2
350
54
  3
B3
350
55
  3
B4
350
56
  3
B5
350
57
  3
B6
350
58
  3
B7
350
59
  3
B8
350
5A
  3
B9
350
5B
  3
C0
350
5C
  3
C1
350
5D
  3
C2
350
5E
  3
C3
350
5F
  3
C4
350
60
  3
C5
350
61
  3
C6
350
62
  3
C7
350
63
  3
C8
350
64
  3
C9
350
65
  3
D0
350
66
  3
D1
350
67
  3
D2
350
68
  0
DICTIONARY
  5
13C
102
{ACAD_REACTORS
330
C
102
}
330
C
100
AcDbDictionary
281
     1
  0
DICTIONARY
  5
139
102
{ACAD_REACTORS
330
C
102
}
330
C
100
AcDbDictionary
281
     1
  0
DICTIONARY
  5
2A
102
{ACAD_REACTORS
330
C
102
}
330
C
100
AcDbDictionary
281
     1
  3
2dWireframe
350
2F
  3
Basic
350
32
  3
Brighten
350
36
  3
ColorChange
350
3A
  3
Conceptual
350
34
  3
Dim
350
35
  3
EdgeColorOff
350
3D
  3
Facepattern
350
39
  3
Flat
350
2B
  3
FlatWithEdges
350
2C
  3
Gouraud
350
2D
  3
GouraudWithEdges
350
2E
  3
Hidden
350
31
  3
JitterOff
350
3B
  3
Linepattern
350
38
  3
OverhangOff
350
3C
  3
Realistic
350
33
  3
Shaded
350
42
  3
Shaded with edges
350
41
  3
Shades of Gray
350
3E
  3
Sketchy
350
3F
  3
Thicken
350
37
  3
Wireframe
350
30
  3
X-Ray
350
40
  0
DICTIONARY
  5
137
102
{ACAD_REACTORS
330
C
102
}
330
C
100
AcDbDictionary
281
     1
  3
CANNOSCALE
350
138
  0
LAYOUT
  5
1E
102
{ACAD_REACTORS
330
1A
102
}
330
1A
100
AcDbPlotSettings
  1

  2
none_device
  4

  6

 40
0.0
 41
0.0
 42
0.0
 43
0.0
 44
0.0
 45
0.0
 46
0.0
 47
0.0
 48
0.0
 49
0.0
140
0.0
141
0.0
142
1.0
143
1.0
 70
   688
 72
     1
 73
     0
 74
     5
  7

 75
    16
 76
     0
 77
     2
 78
   300
147
1.0
148
0.0
149
0.0
100
AcDbLayout
  1
Layout1
 70
     1
 71
     1
 10
0.0
 20
0.0
 11
420.0
 21
297.0
 12
0.0
 22
0.0
 32
0.0
 14
1.000000000000000E+20
 24
1.000000000000000E+20
 34
1.000000000000000E+20
 15
-1.000000000000000E+20
 25
-1.000000000000000E+20
 35
-1.000000000000000E+20
146
0.0
 13
0.0
 23
0.0
 33
0.0
 16
1.0
 26
0.0
 36
0.0
 17
0.0
 27
1.0
 37
0.0
 76
     0
330
1B
  0
LAYOUT
  5
26
102
{ACAD_REACTORS
330
1A
102
}
330
1A
100
AcDbPlotSettings
  1

  2
none_device
  4

  6

 40
0.0
 41
0.0
 42
0.0
 43
0.0
 44
0.0
 45
0.0
 46
0.0
 47
0.0
 48
0.0
 49
0.0
140
0.0
141
0.0
142
1.0
143
1.0
 70
   688
 72
     1
 73
     0
 74
     5
  7

 75
    16
 76
     0
 77
     2
 78
   300
147
1.0
148
0.0
149
0.0
100
AcDbLayout
  1
Layout2
 70
     1
 71
     2
 10
0.0
 20
0.0
 11
0.0
 21
0.0
 12
0.0
 22
0.0
 32
0.0
 14
0.0
 24
0.0
 34
0.0
 15
0.0
 25
0.0
 35
0.0
146
0.0
 13
0.0
 23
0.0
 33
0.0
 16
1.0
 26
0.0
 36
0.0
 17
0.0
 27
1.0
 37
0.0
 76
     0
330
23
  0
LAYOUT
  5
22
102
{ACAD_REACTORS
330
1A
102
}
330
1A
100
AcDbPlotSettings
  1

  2
none_device
  4
Letter_(8.50_x_11.00_Inches)
  6

 40
6.35
 41
6.35
 42
6.35000508
 43
6.35000508
 44
215.9
 45
279.4
 46
0.0
 47
0.0
 48
0.0
 49
0.0
140
0.0
141
0.0
142
1.0
143
1.0
 70
  1712
 72
     1
 73
     0
 74
     0
  7

 75
     0
 76
     0
 77
     2
 78
   300
147
1.0
148
0.0
149
0.0
100
AcDbLayout
  1
Model
 70
     1
 71
     0
 10
0.0
 20
0.0
 11
420.0
 21
297.0
 12
0.0
 22
0.0
 32
0.0
 14
-14.25102742609043
 24
-14.25661387077148
 34
0.0
 15
14.25820235487078
 25
14.25261591018974
 35
0.0
146
0.0
 13
0.0
 23
0.0
 33
0.0
 16
1.0
 26
0.0
 36
0.0
 17
0.0
 27
1.0
 37
0.0
 76
     0
330
1F
331
29
  0
MATERIAL
  5
45
102
{ACAD_REACTORS
330
43
102
}
330
43
100
AcDbMaterial
  1
ByBlock
 72
     1
 94
      127
  0
MATERIAL
  5
44
102
{ACAD_REACTORS
330
43
102
}
330
43
100
AcDbMaterial
  1
ByLayer
 72
     1
 94
      127
  0
MATERIAL
  5
46
102
{ACAD_REACTORS
330
43
102
}
330
43
100
AcDbMaterial
  1
Global
 72
     1
 94
      127
  0
MLINESTYLE
  5
18
102
{ACAD_REACTORS
330
17
102
}
330
17
100
AcDbMlineStyle
  2
Standard
 70
     0
  3

 62
   256
 51
90.0
 52
90.0
 71
     2
 49
0.5
 62
   256
  6
BYLAYER
 49
-0.5
 62
   256
  6
BYLAYER
  0
ACDBPLACEHOLDER
  5
F
102
{ACAD_REACTORS
330
E
102
}
330
E
  0
SCALE
  5
48
102
{ACAD_REACTORS
330
47
102
}
330
47
100
AcDbScale
 70
     0
300
1:1
140
1.0
141
1.0
290
     1
  0
SCALE
  5
49
102
{ACAD_REACTORS
330
47
102
}
330
47
100
AcDbScale
 70
     0
300
1:2
140
1.0
141
2.0
290
     0
  0
SCALE
  5
4A
102
{ACAD_REACTORS
330
47
102
}
330
47
100
AcDbScale
 70
     0
300
1:4
140
1.0
141
4.0
290
     0
  0
SCALE
  5
4B
102
{ACAD_REACTORS
330
47
102
}
330
47
100
AcDbScale
 70
     0
300
1:5
140
1.0
141
5.0
290
     0
  0
SCALE
  5
4C
102
{ACAD_REACTORS
330
47
102
}
330
47
100
AcDbScale
 70
     0
300
1:8
140
1.0
141
8.0
290
     0
  0
SCALE
  5
4D
102
{ACAD_REACTORS
330
47
102
}
330
47
100
AcDbScale
 70
     0
300
1:10
140
1.0
141
10.0
290
     0
  0
SCALE
  5
4E
102
{ACAD_REACTORS
330
47
102
}
330
47
100
AcDbScale
 70
     0
300
1:16
140
1.0
141
16.0
290
     0
  0
SCALE
  5
4F
102
{ACAD_REACTORS
330
47
102
}
330
47
100
AcDbScale
 70
     0
300
1:20
140
1.0
141
20.0
290
     0
  0
SCALE
  5
50
102
{ACAD_REACTORS
330
47
102
}
330
47
100
AcDbScale
 70
     0
300
1:30
140
1.0
141
30.0
290
     0
  0
SCALE
  5
51
102
{ACAD_REACTORS
330
47
102
}
330
47
100
AcDbScale
 70
     0
300
1:40
140
1.0
141
40.0
290
     0
  0
SCALE
  5
52
102
{ACAD_REACTORS
330
47
102
}
330
47
100
AcDbScale
 70
     0
300
1:50
140
1.0
141
50.0
290
     0
  0
SCALE
  5
53
102
{ACAD_REACTORS
330
47
102
}
330
47
100
AcDbScale
 70
     0
300
1:100
140
1.0
141
100.0
290
     0
  0
SCALE
  5
54
102
{ACAD_REACTORS
330
47
102
}
330
47
100
AcDbScale
 70
     0
300
2:1
140
2.0
141
1.0
290
     0
  0
SCALE
  5
55
102
{ACAD_REACTORS
330
47
102
}
330
47
100
AcDbScale
 70
     0
300
4:1
140
4.0
141
1.0
290
     0
  0
SCALE
  5
56
102
{ACAD_REACTORS
330
47
102
}
330
47
100
AcDbScale
 70
     0
300
8:1
140
8.0
141
1.0
290
     0
  0
SCALE
  5
57
102
{ACAD_REACTORS
330
47
102
}
330
47
100
AcDbScale
 70
     0
300
10:1
140
10.0
141
1.0
290
     0
  0
SCALE
  5
58
102
{ACAD_REACTORS
330
47
102
}
330
47
100
AcDbScale
 70
     0
300
100:1
140
100.0
141
1.0
290
     0
  0
SCALE
  5
59
102
{ACAD_REACTORS
330
47
102
}
330
47
100
AcDbScale
 70
     0
300
1/128" = 1'-0"
140
0.0078125
141
12.0
290
     0
  0
SCALE
  5
5A
102
{ACAD_REACTORS
330
47
102
}
330
47
100
AcDbScale
 70
     0
300
1/64" = 1'-0"
140
0.015625
141
12.0
290
     0
  0
SCALE
  5
5B
102
{ACAD_REACTORS
330
47
102
}
330
47
100
AcDbScale
 70
     0
300
1/32" = 1'-0"
140
0.03125
141
12.0
290
     0
  0
SCALE
  5
5C
102
{ACAD_REACTORS
330
47
102
}
330
47
100
AcDbScale
 70
     0
300
1/16" = 1'-0"
140
0.0625
141
12.0
290
     0
  0
SCALE
  5
5D
102
{ACAD_REACTORS
330
47
102
}
330
47
100
AcDbScale
 70
     0
300
3/32" = 1'-0"
140
0.09375
141
12.0
290
     0
  0
SCALE
  5
5E
102
{ACAD_REACTORS
330
47
102
}
330
47
100
AcDbScale
 70
     0
300
1/8" = 1'-0"
140
0.125
141
12.0
290
     0
  0
SCALE
  5
5F
102
{ACAD_REACTORS
330
47
102
}
330
47
100
AcDbScale
 70
     0
300
3/16" = 1'-0"
140
0.1875
141
12.0
290
     0
  0
SCALE
  5
60
102
{ACAD_REACTORS
330
47
102
}
330
47
100
AcDbScale
 70
     0
300
1/4" = 1'-0"
140
0.25
141
12.0
290
     0
  0
SCALE
  5
61
102
{ACAD_REACTORS
330
47
102
}
330
47
100
AcDbScale
 70
     0
300
3/8" = 1'-0"
140
0.375
141
12.0
290
     0
  0
SCALE
  5
62
102
{ACAD_REACTORS
330
47
102
}
330
47
100
AcDbScale
 70
     0
300
1/2" = 1'-0"
140
0.5
141
12.0
290
     0
  0
SCALE
  5
63
102
{ACAD_REACTORS
330
47
102
}
330
47
100
AcDbScale
 70
     0
300
3/4" = 1'-0"
140
0.75
141
12.0
290
     0
  0
SCALE
  5
64
102
{ACAD_REACTORS
330
47
102
}
330
47
100
AcDbScale
 70
     0
300
1" = 1'-0"
140
1.0
141
12.0
290
     0
  0
SCALE
  5
65
102
{ACAD_REACTORS
330
47
102
}
330
47
100
AcDbScale
 70
     0
300
1-1/2" = 1'-0"
140
1.5
141
12.0
290
     0
  0
SCALE
  5
66
102
{ACAD_REACTORS
330
47
102
}
330
47
100
AcDbScale
 70
     0
300
3" = 1'-0"
140
3.0
141
12.0
290
     0
  0
SCALE
  5
67
102
{ACAD_REACTORS
330
47
102
}
330
47
100
AcDbScale
 70
     0
300
6" = 1'-0"
140
6.0
141
12.0
290
     0
  0
SCALE
  5
68
102
{ACAD_REACTORS
330
47
102
}
330
47
100
AcDbScale
 70
     0
300
1'-0" = 1'-0"
140
12.0
141
12.0
290
     0
  0
VISUALSTYLE
  5
2F
102
{ACAD_REACTORS
330
2A
102
}
330
2A
100
AcDbVisualStyle
  2
2dWireframe
 70
     4
177
     3
291
     0
 70
    58
 90
        0
176
     1
 90
        2
176
     1
 90
        0
176
     1
 90
        0
176
     1
 40
0.6
176
     1
 40
30.0
176
     1
 62
     7
420
 16777215
176
     1
 90
        1
176
     1
 90
        4
176
     1
 62
     7
176
     1
 62
   257
176
     1
 90
        1
176
     1
 90
        1
176
     1
 40
1.0
176
     1
 90
        0
176
     1
 62
   257
176
     1
 40
1.0
176
     1
 90
        1
176
     1
 90
        6
176
     1
 90
        2
176
     1
 62
     7
176
     1
 90
        5
176
     1
 90
        0
176
     1
 90
        0
176
     1
290
     0
176
     1
 90
        1
176
     1
 40
0.0
176
     1
 90
        0
176
     1
290
     1
176
     1
290
     1
176
     1
290
     0
176
     1
290
     0
176
     1
290
     0
176
     1
290
     0
176
     1
290
     0
176
     1
290
     0
176
     1
290
     0
176
     1
 90
       50
176
     1
 40
0.0
176
     1
 40
1.0
176
     1
 90
        0
176
     1
 62
    18
420
        0
176
     1
 90
       50
176
     1
 90
        3
176
     1
 62
     5
420
      255
176
     1
290
     0
176
     1
 90
       50
176
     1
 90
       50
176
     1
 90
       50
176
     1
290
     0
176
     1
 90
       50
176
     1
 62
   256
176
     0
 40
1.0
176
     0
 90
        2
176
     1
  1
strokes_ogs.tif
176
     1
290
     0
176
     1
 40
1.0
176
     1
 40
1.0
176
     1
  0
VISUALSTYLE
  5
32
102
{ACAD_REACTORS
330
2A
102
}
330
2A
100
AcDbVisualStyle
  2
Basic
 70
     7
177
     3
291
     1
 70
    58
 90
        1
176
     1
 90
        0
176
     1
 90
        1
176
     1
 90
        0
176
     1
 40
0.6
176
     1
 40
30.0
176
     1
 62
     7
420
 16777215
176
     1
 90
        0
176
     1
 90
        4
176
     1
 62
     7
176
     1
 62
   257
176
     1
 90
        1
176
     1
 90
        1
176
     1
 40
1.0
176
     1
 90
        8
176
     1
 62
     7
176
     1
 40
1.0
176
     1
 90
        1
176
     1
 90
        6
176
     1
 90
        2
176
     1
 62
     7
176
     1
 90
        5
176
     1
 90
        0
176
     1
 90
        0
176
     1
290
     0
176
     1
 90
        1
176
     1
 40
0.0
176
     1
 90
        0
176
     1
290
     0
176
     1
290
     1
176
     1
290
     1
176
     1
290
     0
176
     1
290
     0
176
     1
290
     0
176
     1
290
     0
176
     1
290
     0
176
     1
290
     0
176
     1
 90
       50
176
     1
 40
0.0
176
     1
 40
1.0
176
     1
 90
        0
176
     1
 62
    18
420
        0
176
     1
 90
       50
176
     1
 90
        3
176
     1
 62
     5
420
      255
176
     1
290
     0
176
     1
 90
       50
176
     1
 90
       50
176
     1
 90
       50
176
     1
290
     0
176
     1
 90
       50
176
     1
 62
   256
176
     0
 40
1.0
176
     0
 90
        2
176
     1
  1
strokes_ogs.tif
176
     1
290
     0
176
     1
 40
1.0
176
     1
 40
1.0
176
     1
  0
VISUALSTYLE
  5
36
102
{ACAD_REACTORS
330
2A
102
}
330
2A
100
AcDbVisualStyle
  2
Brighten
 70
    12
177
     3
291
     1
 70
    58
 90
        2
176
     1
 90
        2
176
     1
 90
        0
176
     1
 90
        0
176
     1
 40
0.6
176
     1
 40
30.0
176
     1
 62
     7
420
 16777215
176
     1
 90
        1
176
     1
 90
        4
176
     1
 62
     7
176
     1
 62
   257
176
     1
 90
        1
176
     1
 90
        1
176
     1
 40
1.0
176
     1
 90
        8
176
     1
 62
     7
176
     1
 40
1.0
176
     1
 90
        1
176
     1
 90
        6
176
     1
 90
        2
176
     1
 62
     7
176
     1
 90
        5
176
     1
 90
        0
176
     1
 90
        0
176
     1
290
     0
176
     1
 90
        1
176
     1
 40
50.0
176
     1
 90
        0
176
     1
290
     0
176
     1
290
     1
176
     1
290
     1
176
     1
290
     0
176
     1
290
     0
176
     1
290
     0
176
     1
290
     0
176
     1
290
     0
176
     1
290
     0
176
     1
 90
       50
176
     1
 40
0.0
176
     1
 40
1.0
176
     1
 90
        0
176
     1
 62
    18
420
        0
176
     1
 90
       50
176
     1
 90
        3
176
     1
 62
     5
420
      255
176
     1
290
     0
176
     1
 90
       50
176
     1
 90
       50
176
     1
 90
       50
176
     1
290
     0
176
     1
 90
       50
176
     1
 62
   256
176
     0
 40
1.0
176
     0
 90
        2
176
     1
  1
strokes_ogs.tif
176
     1
290
     0
176
     1
 40
1.0
176
     1
 40
1.0
176
     1
  0
VISUALSTYLE
  5
3A
102
{ACAD_REACTORS
330
2A
102
}
330
2A
100
AcDbVisualStyle
  2
ColorChange
 70
    16
177
     3
291
     1
 70
    58
 90
        2
176
     1
 90
        2
176
     1
 90
        3
176
     1
 90
        0
176
     1
 40
0.6
176
     1
 40
30.0
176
     1
 62
     8
420
  8421504
176
     1
 90
        1
176
     1
 90
        4
176
     1
 62
     7
176
     1
 62
   257
176
     1
 90
        1
176
     1
 90
        1
176
     1
 40
1.0
176
     1
 90
        8
176
     1
 62
     8
420
  8421504
176
     1
 40
1.0
176
     1
 90
        1
176
     1
 90
        6
176
     1
 90
        2
176
     1
 62
     7
176
     1
 90
        5
176
     1
 90
        0
176
     1
 90
        0
176
     1
290
     0
176
     1
 90
        1
176
     1
 40
0.0
176
     1
 90
        0
176
     1
290
     0
176
     1
290
     1
176
     1
290
     1
176
     1
290
     0
176
     1
290
     0
176
     1
290
     0
176
     1
290
     0
176
     1
290
     0
176
     1
290
     0
176
     1
 90
       50
176
     1
 40
0.0
176
     1
 40
1.0
176
     1
 90
        0
176
     1
 62
    18
420
        0
176
     1
 90
       50
176
     1
 90
        3
176
     1
 62
     5
420
      255
176
     1
290
     0
176
     1
 90
       50
176
     1
 90
       50
176
     1
 90
       50
176
     1
290
     0
176
     1
 90
       50
176
     1
 62
   256
176
     0
 40
1.0
176
     0
 90
        2
176
     1
  1
strokes_ogs.tif
176
     1
290
     0
176
     1
 40
1.0
176
     1
 40
1.0
176
     1
  0
VISUALSTYLE
  5
34
102
{ACAD_REACTORS
330
2A
102
}
330
2A
100
AcDbVisualStyle
  2
Conceptual
 70
     9
177
     3
291
     0
 70
    58
 90
        3
176
     1
 90
        2
176
     1
 90
        0
176
     1
 90
        0
176
     1
 40
0.6
176
     1
 40
30.0
176
     1
 62
     7
420
 16777215
176
     1
 90
        2
176
     1
 90
        2
176
     1
 62
     7
176
     1
 62
   257
176
     1
 90
        1
176
     1
 90
        1
176
     1
 40
179.0
176
     1
 90
        8
176
     1
 62
     7
176
     1
 40
1.0
176
     1
 90
        1
176
     1
 90
        6
176
     1
 90
        2
176
     1
 62
     7
176
     1
 90
        3
176
     1
 90
        0
176
     1
 90
        0
176
     1
290
     0
176
     1
 90
        1
176
     1
 40
0.0
176
     1
 90
        0
176
     1
290
     0
176
     1
290
     1
176
     1
290
     1
176
     1
290
     0
176
     1
290
     0
176
     1
290
     0
176
     1
290
     0
176
     1
290
     0
176
     1
290
     0
176
     1
 90
       50
176
     1
 40
0.0
176
     1
 40
1.0
176
     1
 90
        0
176
     1
 62
    18
420
        0
176
     1
 90
       50
176
     1
 90
        3
176
     1
 62
     5
420
      255
176
     1
290
     0
176
     1
 90
       50
176
     1
 90
       50
176
     1
 90
       50
176
     1
290
     0
176
     1
 90
       50
176
     1
 62
   256
176
     0
 40
1.0
176
     0
 90
        2
176
     1
  1
strokes_ogs.tif
176
     1
290
     0
176
     1
 40
1.0
176
     1
 40
1.0
176
     1
  0
VISUALSTYLE
  5
35
102
{ACAD_REACTORS
330
2A
102
}
330
2A
100
AcDbVisualStyle
  2
Dim
 70
    11
177
     3
291
     1
 70
    58
 90
        2
176
     1
 90
        2
176
     1
 90
        0
176
     1
 90
        0
176
     1
 40
0.6
176
     1
 40
30.0
176
     1
 62
     7
420
 16777215
176
     1
 90
        1
176
     1
 90
        4
176
     1
 62
     7
176
     1
 62
   257
176
     1
 90
        1
176
     1
 90
        1
176
     1
 40
1.0
176
     1
 90
        8
176
     1
 62
     7
176
     1
 40
1.0
176
     1
 90
        1
176
     1
 90
        6
176
     1
 90
        2
176
     1
 62
     7
176
     1
 90
        5
176
     1
 90
        0
176
     1
 90
        0
176
     1
290
     0
176
     1
 90
        1
176
     1
 40
-50.0
176
     1
 90
        0
176
     1
290
     0
176
     1
290
     1
176
     1
290
     1
176
     1
290
     0
176
     1
290
     0
176
     1
290
     0
176
     1
290
     0
176
     1
290
     0
176
     1
290
     0
176
     1
 90
       50
176
     1
 40
0.0
176
     1
 40
1.0
176
     1
 90
        0
176
     1
 62
    18
420
        0
176
     1
 90
       50
176
     1
 90
        3
176
     1
 62
     5
420
      255
176
     1
290
     0
176
     1
 90
       50
176
     1
 90
       50
176
     1
 90
       50
176
     1
290
     0
176
     1
 90
       50
176
     1
 62
   256
176
     0
 40
1.0
176
     0
 90
        2
176
     1
  1
strokes_ogs.tif
176
     1
290
     0
176
     1
 40
1.0
176
     1
 40
1.0
176
     1
  0
VISUALSTYLE
  5
3D
102
{ACAD_REACTORS
330
2A
102
}
330
2A
100
AcDbVisualStyle
  2
EdgeColorOff
 70
    22
177
     3
291
     1
 70
    58
 90
        2
176
     0
 90
        2
176
     0
 90
        0
176
     0
 90
        0
176
     0
 40
0.6
176
     0
 40
30.0
176
     0
 62
     7
420
 16777215
176
     0
 90
        1
176
     0
 90
        4
176
     0
 62
     7
176
     0
 62
   257
176
     0
 90
        1
176
     0
 90
        1
176
     0
 40
1.0
176
     0
 90
        8
176
     2
 62
     7
176
     0
 40
1.0
176
     0
 90
        1
176
     0
 90
        6
176
     0
 90
        2
176
     0
 62
     7
176
     0
 90
        5
176
     0
 90
        0
176
     0
 90
        0
176
     0
290
     0
176
     0
 90
        1
176
     0
 40
0.0
176
     0
 90
        0
176
     0
290
     0
176
     0
290
     1
176
     0
290
     1
176
     0
290
     0
176
     0
290
     0
176
     0
290
     0
176
     0
290
     0
176
     0
290
     0
176
     0
290
     0
176
     0
 90
       50
176
     0
 40
0.0
176
     0
 40
1.0
176
     0
 90
        0
176
     0
 62
    18
420
        0
176
     0
 90
       50
176
     0
 90
        3
176
     0
 62
     5
420
      255
176
     0
290
     0
176
     0
 90
       50
176
     0
 90
       50
176
     0
 90
       50
176
     0
290
     0
176
     0
 90
       50
176
     0
 62
   256
176
     0
 40
1.0
176
     0
 90
        2
176
     0
  1
strokes_ogs.tif
176
     0
290
     0
176
     0
 40
1.0
176
     0
 40
1.0
176
     0
  0
VISUALSTYLE
  5
39
102
{ACAD_REACTORS
330
2A
102
}
330
2A
100
AcDbVisualStyle
  2
Facepattern
 70
    15
177
     3
291
     1
 70
    58
 90
        2
176
     1
 90
        2
176
     1
 90
        0
176
     1
 90
        0
176
     1
 40
0.6
176
     1
 40
30.0
176
     1
 62
     7
420
 16777215
176
     1
 90
        1
176
     1
 90
        4
176
     1
 62
     7
176
     1
 62
   257
176
     1
 90
        1
176
     1
 90
        1
176
     1
 40
1.0
176
     1
 90
        8
176
     1
 62
     7
176
     1
 40
1.0
176
     1
 90
        1
176
     1
 90
        6
176
     1
 90
        2
176
     1
 62
     7
176
     1
 90
        5
176
     1
 90
        0
176
     1
 90
        0
176
     1
290
     0
176
     1
 90
        1
176
     1
 40
0.0
176
     1
 90
        0
176
     1
290
     0
176
     1
290
     1
176
     1
290
     1
176
     1
290
     0
176
     1
290
     0
176
     1
290
     0
176
     1
290
     0
176
     1
290
     0
176
     1
290
     0
176
     1
 90
       50
176
     1
 40
0.0
176
     1
 40
1.0
176
     1
 90
        0
176
     1
 62
    18
420
        0
176
     1
 90
       50
176
     1
 90
        3
176
     1
 62
     5
420
      255
176
     1
290
     0
176
     1
 90
       50
176
     1
 90
       50
176
     1
 90
       50
176
     1
290
     0
176
     1
 90
       50
176
     1
 62
   256
176
     0
 40
1.0
176
     0
 90
        2
176
     1
  1
strokes_ogs.tif
176
     1
290
     0
176
     1
 40
1.0
176
     1
 40
1.0
176
     1
  0
VISUALSTYLE
  5
2B
102
{ACAD_REACTORS
330
2A
102
}
330
2A
100
AcDbVisualStyle
  2
Flat
 70
     0
177
     3
291
     1
 70
    58
 90
        2
176
     1
 90
        1
176
     1
 90
        1
176
     1
 90
        2
176
     1
 40
0.6
176
     1
 40
30.0
176
     1
 62
     7
420
 16777215
176
     1
 90
        0
176
     1
 90
        0
176
     1
 62
     7
176
     1
 62
   257
176
     1
 90
        1
176
     1
 90
        1
176
     1
 40
1.0
176
     1
 90
        8
176
     1
 62
     7
176
     1
 40
1.0
176
     1
 90
        1
176
     1
 90
        6
176
     1
 90
        2
176
     1
 62
     7
176
     1
 90
        5
176
     1
 90
        0
176
     1
 90
        0
176
     1
290
     0
176
     1
 90
       13
176
     1
 40
0.0
176
     1
 90
        0
176
     1
290
     0
176
     1
290
     1
176
     1
290
     1
176
     1
290
     0
176
     1
290
     0
176
     1
290
     0
176
     1
290
     0
176
     1
290
     0
176
     1
290
     0
176
     1
 90
       50
176
     1
 40
0.0
176
     1
 40
1.0
176
     1
 90
        0
176
     1
 62
    18
420
        0
176
     1
 90
       50
176
     1
 90
        3
176
     1
 62
     5
420
      255
176
     1
290
     0
176
     1
 90
       50
176
     1
 90
       50
176
     1
 90
       50
176
     1
290
     0
176
     1
 90
       50
176
     1
 62
   256
176
     0
 40
1.0
176
     0
 90
        2
176
     1
  1
strokes_ogs.tif
176
     1
290
     0
176
     1
 40
1.0
176
     1
 40
1.0
176
     1
  0
VISUALSTYLE
  5
2C
102
{ACAD_REACTORS
330
2A
102
}
330
2A
100
AcDbVisualStyle
  2
FlatWithEdges
 70
     1
177
     3
291
     1
 70
    58
 90
        2
176
     1
 90
        1
176
     1
 90
        1
176
     1
 90
        2
176
     1
 40
0.6
176
     1
 40
30.0
176
     1
 62
     7
420
 16777215
176
     1
 90
        1
176
     1
 90
        0
176
     1
 62
     7
176
     1
 62
   257
176
     1
 90
        1
176
     1
 90
        1
176
     1
 40
1.0
176
     1
 90
        0
176
     1
 62
   257
176
     1
 40
1.0
176
     1
 90
        1
176
     1
 90
        6
176
     1
 90
        2
176
     1
 62
     7
176
     1
 90
        5
176
     1
 90
        0
176
     1
 90
        0
176
     1
290
     0
176
     1
 90
       13
176
     1
 40
0.0
176
     1
 90
        0
176
     1
290
     0
176
     1
290
     1
176
     1
290
     1
176
     1
290
     0
176
     1
290
     0
176
     1
290
     0
176
     1
290
     0
176
     1
290
     0
176
     1
290
     0
176
     1
 90
       50
176
     1
 40
0.0
176
     1
 40
1.0
176
     1
 90
        0
176
     1
 62
    18
420
        0
176
     1
 90
       50
176
     1
 90
        3
176
     1
 62
     5
420
      255
176
     1
290
     0
176
     1
 90
       50
176
     1
 90
       50
176
     1
 90
       50
176
     1
290
     0
176
     1
 90
       50
176
     1
 62
   256
176
     0
 40
1.0
176
     0
 90
        2
176
     1
  1
strokes_ogs.tif
176
     1
290
     0
176
     1
 40
1.0
176
     1
 40
1.0
176
     1
  0
VISUALSTYLE
  5
2D
102
{ACAD_REACTORS
330
2A
102
}
330
2A
100
AcDbVisualStyle
  2
Gouraud
 70
     2
177
     3
291
     1
 70
    58
 90
        2
176
     1
 90
        2
176
     1
 90
        1
176
     1
 90
        2
176
     1
 40
0.6
176
     1
 40
30.0
176
     1
 62
     7
420
 16777215
176
     1
 90
        0
176
     1
 90
        0
176
     1
 62
     7
176
     1
 62
   257
176
     1
 90
        1
176
     1
 90
        1
176
     1
 40
1.0
176
     1
 90
        0
176
     1
 62
     7
176
     1
 40
1.0
176
     1
 90
        1
176
     1
 90
        6
176
     1
 90
        2
176
     1
 62
     7
176
     1
 90
        5
176
     1
 90
        0
176
     1
 90
        0
176
     1
290
     0
176
     1
 90
       13
176
     1
 40
0.0
176
     1
 90
        0
176
     1
290
     0
176
     1
290
     1
176
     1
290
     1
176
     1
290
     0
176
     1
290
     0
176
     1
290
     0
176
     1
290
     0
176
     1
290
     0
176
     1
290
     0
176
     1
 90
       50
176
     1
 40
0.0
176
     1
 40
1.0
176
     1
 90
        0
176
     1
 62
    18
420
        0
176
     1
 90
       50
176
     1
 90
        3
176
     1
 62
     5
420
      255
176
     1
290
     0
176
     1
 90
       50
176
     1
 90
       50
176
     1
 90
       50
176
     1
290
     0
176
     1
 90
       50
176
     1
 62
   256
176
     0
 40
1.0
176
     0
 90
        2
176
     1
  1
strokes_ogs.tif
176
     1
290
     0
176
     1
 40
1.0
176
     1
 40
1.0
176
     1
  0
VISUALSTYLE
  5
2E
102
{ACAD_REACTORS
330
2A
102
}
330
2A
100
AcDbVisualStyle
  2
GouraudWithEdges
 70
     3
177
     3
291
     1
 70
    58
 90
        2
176
     1
 90
        2
176
     1
 90
        1
176
     1
 90
        2
176
     1
 40
0.6
176
     1
 40
30.0
176
     1
 62
     7
420
 16777215
176
     1
 90
        1
176
     1
 90
        0
176
     1
 62
     7
176
     1
 62
   257
176
     1
 90
        1
176
     1
 90
        1
176
     1
 40
1.0
176
     1
 90
        0
176
     1
 62
   257
176
     1
 40
1.0
176
     1
 90
        1
176
     1
 90
        6
176
     1
 90
        2
176
     1
 62
     7
176
     1
 90
        5
176
     1
 90
        0
176
     1
 90
        0
176
     1
290
     0
176
     1
 90
       13
176
     1
 40
0.0
176
     1
 90
        0
176
     1
290
     0
176
     1
290
     1
176
     1
290
     1
176
     1
290
     0
176
     1
290
     0
176
     1
290
     0
176
     1
290
     0
176
     1
290
     0
176
     1
290
     0
176
     1
 90
       50
176
     1
 40
0.0
176
     1
 40
1.0
176
     1
 90
        0
176
     1
 62
    18
420
        0
176
     1
 90
       50
176
     1
 90
        3
176
     1
 62
     5
420
      255
176
     1
290
     0
176
     1
 90
       50
176
     1
 90
       50
176
     1
 90
       50
176
     1
290
     0
176
     1
 90
       50
176
     1
 62
   256
176
     0
 40
1.0
176
     0
 90
        2
176
     1
  1
strokes_ogs.tif
176
     1
290
     0
176
     1
 40
1.0
176
     1
 40
1.0
176
     1
  0
VISUALSTYLE
  5
31
102
{ACAD_REACTORS
330
2A
102
}
330
2A
100
AcDbVisualStyle
  2
Hidden
 70
     6
177
     3
291
     0
 70
    58
 90
        1
176
     1
 90
        2
176
     1
 90
        2
176
     1
 90
        0
176
     1
 40
0.6
176
     1
 40
30.0
176
     1
 62
     7
420
 16777215
176
     1
 90
        2
176
     1
 90
        2
176
     1
 62
     7
176
     1
 62
   257
176
     1
 90
        2
176
     1
 90
        1
176
     1
 40
40.0
176
     1
 90
        0
176
     1
 62
   257
176
     1
 40
1.0
176
     1
 90
        1
176
     1
 90
        6
176
     1
 90
        2
176
     1
 62
     7
176
     1
 90
        3
176
     1
 90
        0
176
     1
 90
        0
176
     1
290
     0
176
     1
 90
        1
176
     1
 40
0.0
176
     1
 90
        0
176
     1
290
     0
176
     1
290
     1
176
     1
290
     1
176
     1
290
     0
176
     1
290
     0
176
     1
290
     0
176
     1
290
     0
176
     1
290
     0
176
     1
290
     0
176
     1
 90
       50
176
     1
 40
0.0
176
     1
 40
1.0
176
     1
 90
        0
176
     1
 62
    18
420
        0
176
     1
 90
       50
176
     1
 90
        3
176
     1
 62
     5
420
      255
176
     1
290
     0
176
     1
 90
       50
176
     1
 90
       50
176
     1
 90
       50
176
     1
290
     0
176
     1
 90
       50
176
     1
 62
   256
176
     0
 40
1.0
176
     0
 90
        2
176
     1
  1
strokes_ogs.tif
176
     1
290
     0
176
     1
 40
1.0
176
     1
 40
1.0
176
     1
  0
VISUALSTYLE
  5
3B
102
{ACAD_REACTORS
330
2A
102
}
330
2A
100
AcDbVisualStyle
  2
JitterOff
 70
    20
177
     3
291
     1
 70
    58
 90
        2
176
     0
 90
        2
176
     0
 90
        0
176
     0
 90
        0
176
     0
 40
0.6
176
     0
 40
30.0
176
     0
 62
     7
420
 16777215
176
     0
 90
        1
176
     0
 90
        4
176
     0
 62
     7
176
     0
 62
   257
176
     0
 90
        1
176
     0
 90
        1
176
     0
 40
1.0
176
     0
 90
       10
176
     2
 62
     7
176
     0
 40
1.0
176
     0
 90
        1
176
     0
 90
        6
176
     0
 90
        2
176
     0
 62
     7
176
     0
 90
        5
176
     0
 90
        0
176
     0
 90
        0
176
     0
290
     0
176
     0
 90
        1
176
     0
 40
0.0
176
     0
 90
        0
176
     0
290
     0
176
     0
290
     1
176
     0
290
     1
176
     0
290
     0
176
     0
290
     0
176
     0
290
     0
176
     0
290
     0
176
     0
290
     0
176
     0
290
     0
176
     0
 90
       50
176
     0
 40
0.0
176
     0
 40
1.0
176
     0
 90
        0
176
     0
 62
    18
420
        0
176
     0
 90
       50
176
     0
 90
        3
176
     0
 62
     5
420
      255
176
     0
290
     0
176
     0
 90
       50
176
     0
 90
       50
176
     0
 90
       50
176
     0
290
     0
176
     0
 90
       50
176
     0
 62
   256
176
     0
 40
1.0
176
     0
 90
        2
176
     0
  1
strokes_ogs.tif
176
     0
290
     0
176
     0
 40
1.0
176
     0
 40
1.0
176
     0
  0
VISUALSTYLE
  5
38
102
{ACAD_REACTORS
330
2A
102
}
330
2A
100
AcDbVisualStyle
  2
Linepattern
 70
    14
177
     3
291
     1
 70
    58
 90
        2
176
     1
 90
        2
176
     1
 90
        0
176
     1
 90
        0
176
     1
 40
0.6
176
     1
 40
30.0
176
     1
 62
     7
420
 16777215
176
     1
 90
        1
176
     1
 90
        4
176
     1
 62
     7
176
     1
 62
   257
176
     1
 90
        7
176
     1
 90
        7
176
     1
 40
1.0
176
     1
 90
        8
176
     1
 62
     7
176
     1
 40
1.0
176
     1
 90
        1
176
     1
 90
        6
176
     1
 90
        2
176
     1
 62
     7
176
     1
 90
        5
176
     1
 90
        0
176
     1
 90
        0
176
     1
290
     0
176
     1
 90
        1
176
     1
 40
0.0
176
     1
 90
        0
176
     1
290
     0
176
     1
290
     1
176
     1
290
     1
176
     1
290
     0
176
     1
290
     0
176
     1
290
     0
176
     1
290
     0
176
     1
290
     0
176
     1
290
     0
176
     1
 90
       50
176
     1
 40
0.0
176
     1
 40
1.0
176
     1
 90
        0
176
     1
 62
    18
420
        0
176
     1
 90
       50
176
     1
 90
        3
176
     1
 62
     5
420
      255
176
     1
290
     0
176
     1
 90
       50
176
     1
 90
       50
176
     1
 90
       50
176
     1
290
     0
176
     1
 90
       50
176
     1
 62
   256
176
     0
 40
1.0
176
     0
 90
        2
176
     1
  1
strokes_ogs.tif
176
     1
290
     0
176
     1
 40
1.0
176
     1
 40
1.0
176
     1
  0
VISUALSTYLE
  5
3C
102
{ACAD_REACTORS
330
2A
102
}
330
2A
100
AcDbVisualStyle
  2
OverhangOff
 70
    21
177
     3
291
     1
 70
    58
 90
        2
176
     0
 90
        2
176
     0
 90
        0
176
     0
 90
        0
176
     0
 40
0.6
176
     0
 40
30.0
176
     0
 62
     7
420
 16777215
176
     0
 90
        1
176
     0
 90
        4
176
     0
 62
     7
176
     0
 62
   257
176
     0
 90
        1
176
     0
 90
        1
176
     0
 40
1.0
176
     0
 90
        9
176
     2
 62
     7
176
     0
 40
1.0
176
     0
 90
        1
176
     0
 90
        6
176
     0
 90
        2
176
     0
 62
     7
176
     0
 90
        5
176
     0
 90
        0
176
     0
 90
        0
176
     0
290
     0
176
     0
 90
        1
176
     0
 40
0.0
176
     0
 90
        0
176
     0
290
     0
176
     0
290
     1
176
     0
290
     1
176
     0
290
     0
176
     0
290
     0
176
     0
290
     0
176
     0
290
     0
176
     0
290
     0
176
     0
290
     0
176
     0
 90
       50
176
     0
 40
0.0
176
     0
 40
1.0
176
     0
 90
        0
176
     0
 62
    18
420
        0
176
     0
 90
       50
176
     0
 90
        3
176
     0
 62
     5
420
      255
176
     0
290
     0
176
     0
 90
       50
176
     0
 90
       50
176
     0
 90
       50
176
     0
290
     0
176
     0
 90
       50
176
     0
 62
   256
176
     0
 40
1.0
176
     0
 90
        2
176
     0
  1
strokes_ogs.tif
176
     0
290
     0
176
     0
 40
1.0
176
     0
 40
1.0
176
     0
  0
VISUALSTYLE
  5
33
102
{ACAD_REACTORS
330
2A
102
}
330
2A
100
AcDbVisualStyle
  2
Realistic
 70
     8
177
     3
291
     0
 70
    58
 90
        2
176
     1
 90
        3
176
     1
 90
        0
176
     1
 90
        2
176
     1
 40
0.6
176
     1
 40
30.0
176
     1
 62
     7
420
 16777215
176
     1
 90
        0
176
     1
 90
        0
176
     1
 62
     7
176
     1
 62
   257
176
     1
 90
        1
176
     1
 90
        1
176
     1
 40
1.0
176
     1
 90
        8
176
     1
 62
   257
176
     1
 40
1.0
176
     1
 90
        1
176
     1
 90
        6
176
     1
 90
        2
176
     1
 62
     7
176
     1
 90
        3
176
     1
 90
        0
176
     1
 90
        0
176
     1
290
     0
176
     1
 90
       13
176
     1
 40
0.0
176
     1
 90
        0
176
     1
290
     0
176
     1
290
     1
176
     1
290
     1
176
     1
290
     0
176
     1
290
     0
176
     1
290
     0
176
     1
290
     0
176
     1
290
     0
176
     1
290
     0
176
     1
 90
       50
176
     1
 40
0.0
176
     1
 40
1.0
176
     1
 90
        0
176
     1
 62
    18
420
        0
176
     1
 90
       50
176
     1
 90
        3
176
     1
 62
     5
420
      255
176
     1
290
     0
176
     1
 90
       50
176
     1
 90
       50
176
     1
 90
       50
176
     1
290
     0
176
     1
 90
       50
176
     1
 62
   256
176
     0
 40
1.0
176
     0
 90
        2
176
     1
  1
strokes_ogs.tif
176
     1
290
     0
176
     1
 40
1.0
176
     1
 40
1.0
176
     1
  0
VISUALSTYLE
  5
42
102
{ACAD_REACTORS
330
2A
102
}
330
2A
100
AcDbVisualStyle
  2
Shaded
 70
    27
177
     3
291
     0
 70
    58
 90
        2
176
     1
 90
        2
176
     1
 90
        1
176
     1
 90
        2
176
     1
 40
0.6
176
     1
 40
30.0
176
     1
 62
     7
420
 16777215
176
     1
 90
        0
176
     1
 90
        4
176
     1
 62
     7
176
     1
 62
   257
176
     1
 90
        1
176
     1
 90
        1
176
     1
 40
1.0
176
     1
 90
        8
176
     1
 62
   257
176
     1
 40
1.0
176
     1
 90
        1
176
     1
 90
        6
176
     1
 90
        2
176
     1
 62
     8
420
  7895160
176
     1
 90
        3
176
     1
 90
        0
176
     1
 90
        0
176
     1
290
     0
176
     1
 90
        5
176
     1
 40
0.0
176
     1
 90
        0
176
     1
290
     0
176
     1
290
     1
176
     1
290
     1
176
     1
290
     0
176
     1
290
     0
176
     1
290
     0
176
     1
290
     0
176
     1
290
     0
176
     1
290
     0
176
     1
 90
       50
176
     1
 40
0.0
176
     1
 40
1.0
176
     1
 90
        0
176
     1
 62
    18
420
        0
176
     1
 90
       50
176
     1
 90
        3
176
     1
 62
     5
420
      255
176
     1
290
     0
176
     1
 90
       50
176
     1
 90
       50
176
     1
 90
       50
176
     1
290
     0
176
     1
 90
       50
176
     1
 62
   256
176
     0
 40
1.0
176
     0
 90
        2
176
     1
  1
strokes_ogs.tif
176
     1
290
     0
176
     1
 40
1.0
176
     1
 40
1.0
176
     1
  0
VISUALSTYLE
  5
41
102
{ACAD_REACTORS
330
2A
102
}
330
2A
100
AcDbVisualStyle
  2
Shaded with edges
 70
    26
177
     3
291
     0
 70
    58
 90
        2
176
     1
 90
        2
176
     1
 90
        1
176
     1
 90
        2
176
     1
 40
0.6
176
     1
 40
30.0
176
     1
 62
     7
420
 16777215
176
     1
 90
        1
176
     1
 90
       10
176
     1
 62
     7
176
     1
 62
   257
176
     1
 90
        2
176
     1
 90
        1
176
     1
 40
1.0
176
     1
 90
        8
176
     1
 62
   257
176
     1
 40
1.0
176
     1
 90
        1
176
     1
 90
        6
176
     1
 90
        2
176
     1
 62
     7
176
     1
 90
        3
176
     1
 90
        0
176
     1
 90
        0
176
     1
290
     0
176
     1
 90
        5
176
     1
 40
0.0
176
     1
 90
        0
176
     1
290
     0
176
     1
290
     1
176
     1
290
     1
176
     1
290
     0
176
     1
290
     0
176
     1
290
     0
176
     1
290
     0
176
     1
290
     0
176
     1
290
     0
176
     1
 90
       50
176
     1
 40
0.0
176
     1
 40
1.0
176
     1
 90
        0
176
     1
 62
    18
420
        0
176
     1
 90
       50
176
     1
 90
        3
176
     1
 62
     5
420
      255
176
     1
290
     0
176
     1
 90
       50
176
     1
 90
       50
176
     1
 90
       50
176
     1
290
     0
176
     1
 90
       50
176
     1
 62
   256
176
     0
 40
1.0
176
     0
 90
        2
176
     1
  1
strokes_ogs.tif
176
     1
290
     0
176
     1
 40
1.0
176
     1
 40
1.0
176
     1
  0
VISUALSTYLE
  5
3E
102
{ACAD_REACTORS
330
2A
102
}
330
2A
100
AcDbVisualStyle
  2
Shades of Gray
 70
    23
177
     3
291
     0
 70
    58
 90
        2
176
     1
 90
        2
176
     1
 90
        3
176
     1
 90
        0
176
     1
 40
0.6
176
     1
 40
30.0
176
     1
 62
     7
420
 16777215
176
     1
 90
        2
176
     1
 90
        2
176
     1
 62
     7
176
     1
 62
     7
176
     1
 90
        1
176
     1
 90
        1
176
     1
 40
40.0
176
     1
 90
        8
176
     1
 62
     7
176
     1
 40
1.0
176
     1
 90
        1
176
     1
 90
        6
176
     1
 90
        2
176
     1
 62
     7
176
     1
 90
        3
176
     1
 90
        0
176
     1
 90
        0
176
     1
290
     0
176
     1
 90
        1
176
     1
 40
0.0
176
     1
 90
        0
176
     1
290
     0
176
     1
290
     1
176
     1
290
     1
176
     1
290
     0
176
     1
290
     0
176
     1
290
     0
176
     1
290
     0
176
     1
290
     0
176
     1
290
     0
176
     1
 90
       50
176
     1
 40
0.0
176
     1
 40
1.0
176
     1
 90
        0
176
     1
 62
    18
420
        0
176
     1
 90
       50
176
     1
 90
        3
176
     1
 62
     5
420
      255
176
     1
290
     0
176
     1
 90
       50
176
     1
 90
       50
176
     1
 90
       50
176
     1
290
     0
176
     1
 90
       50
176
     1
 62
   256
176
     0
 40
1.0
176
     0
 90
        2
176
     1
  1
strokes_ogs.tif
176
     1
290
     0
176
     1
 40
1.0
176
     1
 40
1.0
176
     1
  0
VISUALSTYLE
  5
3F
102
{ACAD_REACTORS
330
2A
102
}
330
2A
100
AcDbVisualStyle
  2
Sketchy
 70
    24
177
     3
291
     0
 70
    58
 90
        1
176
     1
 90
        2
176
     1
 90
        2
176
     1
 90
        0
176
     1
 40
0.6
176
     1
 40
30.0
176
     1
 62
     7
420
 16777215
176
     1
 90
        2
176
     1
 90
        2
176
     1
 62
     7
176
     1
 62
     7
176
     1
 90
        1
176
     1
 90
        1
176
     1
 40
40.0
176
     1
 90
       11
176
     1
 62
     7
176
     1
 40
1.0
176
     1
 90
        1
176
     1
 90
        6
176
     1
 90
        2
176
     1
 62
     7
176
     1
 90
        6
176
     1
 90
        0
176
     1
 90
        0
176
     1
290
     0
176
     1
 90
        1
176
     1
 40
0.0
176
     1
 90
        0
176
     1
290
     0
176
     1
290
     1
176
     1
290
     1
176
     1
290
     0
176
     1
290
     0
176
     1
290
     0
176
     1
290
     0
176
     1
290
     0
176
     1
290
     0
176
     1
 90
       50
176
     1
 40
0.0
176
     1
 40
1.0
176
     1
 90
        0
176
     1
 62
    18
420
        0
176
     1
 90
       50
176
     1
 90
        3
176
     1
 62
     5
420
      255
176
     1
290
     0
176
     1
 90
       50
176
     1
 90
       50
176
     1
 90
       50
176
     1
290
     0
176
     1
 90
       50
176
     1
 62
   256
176
     0
 40
1.0
176
     0
 90
        2
176
     1
  1
strokes_ogs.tif
176
     1
290
     0
176
     1
 40
1.0
176
     1
 40
1.0
176
     1
  0
VISUALSTYLE
  5
37
102
{ACAD_REACTORS
330
2A
102
}
330
2A
100
AcDbVisualStyle
  2
Thicken
 70
    13
177
     3
291
     1
 70
    58
 90
        2
176
     1
 90
        2
176
     1
 90
        0
176
     1
 90
        0
176
     1
 40
0.6
176
     1
 40
30.0
176
     1
 62
     7
420
 16777215
176
     1
 90
        1
176
     1
 90
        4
176
     1
 62
     7
176
     1
 62
   257
176
     1
 90
        1
176
     1
 90
        1
176
     1
 40
1.0
176
     1
 90
       12
176
     1
 62
     7
176
     1
 40
1.0
176
     1
 90
        1
176
     1
 90
        6
176
     1
 90
        2
176
     1
 62
     7
176
     1
 90
        5
176
     1
 90
        0
176
     1
 90
        0
176
     1
290
     0
176
     1
 90
        1
176
     1
 40
0.0
176
     1
 90
        0
176
     1
290
     0
176
     1
290
     1
176
     1
290
     1
176
     1
290
     0
176
     1
290
     0
176
     1
290
     0
176
     1
290
     0
176
     1
290
     0
176
     1
290
     0
176
     1
 90
       50
176
     1
 40
0.0
176
     1
 40
1.0
176
     1
 90
        0
176
     1
 62
    18
420
        0
176
     1
 90
       50
176
     1
 90
        3
176
     1
 62
     5
420
      255
176
     1
290
     0
176
     1
 90
       50
176
     1
 90
       50
176
     1
 90
       50
176
     1
290
     0
176
     1
 90
       50
176
     1
 62
   256
176
     0
 40
1.0
176
     0
 90
        2
176
     1
  1
strokes_ogs.tif
176
     1
290
     0
176
     1
 40
1.0
176
     1
 40
1.0
176
     1
  0
VISUALSTYLE
  5
30
102
{ACAD_REACTORS
330
2A
102
}
330
2A
100
AcDbVisualStyle
  2
Wireframe
 70
     5
177
     3
291
     0
 70
    58
 90
        0
176
     1
 90
        2
176
     1
 90
        0
176
     1
 90
        0
176
     1
 40
0.6
176
     1
 40
30.0
176
     1
 62
     7
420
 16777215
176
     1
 90
        1
176
     1
 90
        4
176
     1
 62
     7
176
     1
 62
   257
176
     1
 90
        1
176
     1
 90
        1
176
     1
 40
1.0
176
     1
 90
        0
176
     1
 62
   257
176
     1
 40
1.0
176
     1
 90
        1
176
     1
 90
        6
176
     1
 90
        2
176
     1
 62
     7
176
     1
 90
        3
176
     1
 90
        0
176
     1
 90
        0
176
     1
290
     0
176
     1
 90
        1
176
     1
 40
0.0
176
     1
 90
        0
176
     1
290
     0
176
     1
290
     1
176
     1
290
     1
176
     1
290
     0
176
     1
290
     0
176
     1
290
     0
176
     1
290
     0
176
     1
290
     0
176
     1
290
     0
176
     1
 90
       50
176
     1
 40
0.0
176
     1
 40
1.0
176
     1
 90
        0
176
     1
 62
    18
420
        0
176
     1
 90
       50
176
     1
 90
        3
176
     1
 62
     5
420
      255
176
     1
290
     0
176
     1
 90
       50
176
     1
 90
       50
176
     1
 90
       50
176
     1
290
     0
176
     1
 90
       50
176
     1
 62
   256
176
     0
 40
1.0
176
     0
 90
        2
176
     1
  1
strokes_ogs.tif
176
     1
290
     0
176
     1
 40
1.0
176
     1
 40
1.0
176
     1
  0
VISUALSTYLE
  5
40
102
{ACAD_REACTORS
330
2A
102
}
330
2A
100
AcDbVisualStyle
  2
X-Ray
 70
    25
177
     3
291
     0
 70
    58
 90
        2
176
     1
 90
        2
176
     1
 90
        1
176
     1
 90
        1
176
     1
 40
0.5
176
     1
 40
30.0
176
     1
 62
     7
420
 16777215
176
     1
 90
        1
176
     1
 90
        0
176
     1
 62
     7
176
     1
 62
   257
176
     1
 90
        1
176
     1
 90
        1
176
     1
 40
1.0
176
     1
 90
        8
176
     1
 62
     7
176
     1
 40
1.0
176
     1
 90
        1
176
     1
 90
        6
176
     1
 90
        2
176
     1
 62
     7
176
     1
 90
        3
176
     1
 90
        0
176
     1
 90
        0
176
     1
290
     0
176
     1
 90
       13
176
     1
 40
0.0
176
     1
 90
        0
176
     1
290
     0
176
     1
290
     1
176
     1
290
     1
176
     1
290
     0
176
     1
290
     0
176
     1
290
     0
176
     1
290
     0
176
     1
290
     0
176
     1
290
     0
176
     1
 90
       50
176
     1
 40
0.0
176
     1
 40
1.0
176
     1
 90
        0
176
     1
 62
    18
420
        0
176
     1
 90
       50
176
     1
 90
        3
176
     1
 62
     5
420
      255
176
     1
290
     0
176
     1
 90
       50
176
     1
 90
       50
176
     1
 90
       50
176
     1
290
     0
176
     1
 90
       50
176
     1
 62
   256
176
     0
 40
1.0
176
     0
 90
        2
176
     1
  1
strokes_ogs.tif
176
     1
290
     0
176
     1
 40
1.0
176
     1
 40
1.0
176
     1
  0
DICTIONARYVAR
  5
138
102
{ACAD_REACTORS
330
137
102
}
330
137
100
DictionaryVariables
280
     0
  1
1:1
  0
ENDSEC
  0
EOF
